<mxfile host="app.diagrams.net" agent="Mozilla/5.0 (X11; Linux x86_64) AppleWebKit/537.36 (KHTML, like Gecko) Chrome/130.0.0.0 Safari/537.36" version="24.8.4" pages="4">
  <diagram name="Prepend" id="-6JAYmGhsH5W9wLAXupN">
    <mxGraphModel dx="2995" dy="1515" grid="0" gridSize="10" guides="1" tooltips="1" connect="1" arrows="1" fold="1" page="0" pageScale="1" pageWidth="850" pageHeight="1100" background="#FFFFFF" math="0" shadow="0">
      <root>
        <mxCell id="0" />
        <mxCell id="1" parent="0" />
        <mxCell id="BhxZUhrIALIuKVkP4dP1-63" value="" style="rounded=0;whiteSpace=wrap;html=1;" parent="1" vertex="1">
          <mxGeometry x="-120" y="-245" width="306" height="45" as="geometry" />
        </mxCell>
        <mxCell id="BhxZUhrIALIuKVkP4dP1-50" value="Node" style="text;strokeColor=none;align=center;fillColor=none;html=1;verticalAlign=middle;whiteSpace=wrap;rounded=0;fontSize=20;" parent="1" vertex="1">
          <mxGeometry x="-114" y="-238" width="60" height="30" as="geometry" />
        </mxCell>
        <mxCell id="BhxZUhrIALIuKVkP4dP1-51" value="Null" style="text;strokeColor=none;align=center;fillColor=none;html=1;verticalAlign=middle;whiteSpace=wrap;rounded=0;fontSize=28;" parent="1" vertex="1">
          <mxGeometry x="-35" y="-238" width="60" height="30" as="geometry" />
        </mxCell>
        <mxCell id="BhxZUhrIALIuKVkP4dP1-52" value="Head" style="text;strokeColor=none;align=center;fillColor=none;html=1;verticalAlign=middle;whiteSpace=wrap;rounded=0;fontSize=20;" parent="1" vertex="1">
          <mxGeometry x="44" y="-238" width="60" height="30" as="geometry" />
        </mxCell>
        <mxCell id="BhxZUhrIALIuKVkP4dP1-53" value="Tail" style="text;strokeColor=none;align=center;fillColor=none;html=1;verticalAlign=middle;whiteSpace=wrap;rounded=0;fontSize=20;" parent="1" vertex="1">
          <mxGeometry x="123" y="-238" width="60" height="30" as="geometry" />
        </mxCell>
        <mxCell id="BhxZUhrIALIuKVkP4dP1-54" value="" style="group" parent="1" vertex="1" connectable="0">
          <mxGeometry x="-602" y="-208" width="482" height="356" as="geometry" />
        </mxCell>
        <mxCell id="BhxZUhrIALIuKVkP4dP1-62" value="" style="rounded=0;whiteSpace=wrap;html=1;" parent="BhxZUhrIALIuKVkP4dP1-54" vertex="1">
          <mxGeometry x="-25" y="-24" width="494" height="383" as="geometry" />
        </mxCell>
        <mxCell id="BhxZUhrIALIuKVkP4dP1-26" value="" style="whiteSpace=wrap;html=1;" parent="BhxZUhrIALIuKVkP4dP1-54" vertex="1">
          <mxGeometry y="75" width="384" height="212" as="geometry" />
        </mxCell>
        <mxCell id="BhxZUhrIALIuKVkP4dP1-13" style="edgeStyle=none;curved=1;rounded=0;orthogonalLoop=1;jettySize=auto;html=1;fontSize=12;startSize=8;endSize=8;" parent="BhxZUhrIALIuKVkP4dP1-54" source="BhxZUhrIALIuKVkP4dP1-1" target="BhxZUhrIALIuKVkP4dP1-12" edge="1">
          <mxGeometry relative="1" as="geometry" />
        </mxCell>
        <mxCell id="BhxZUhrIALIuKVkP4dP1-1" value="" style="rounded=0;whiteSpace=wrap;html=1;" parent="BhxZUhrIALIuKVkP4dP1-54" vertex="1">
          <mxGeometry x="26" y="107" width="160" height="80" as="geometry" />
        </mxCell>
        <mxCell id="BhxZUhrIALIuKVkP4dP1-6" value="Prepend Empty List" style="text;strokeColor=none;align=center;fillColor=none;html=1;verticalAlign=middle;whiteSpace=wrap;rounded=0;fontSize=16;" parent="BhxZUhrIALIuKVkP4dP1-54" vertex="1">
          <mxGeometry x="26" width="60" height="30" as="geometry" />
        </mxCell>
        <mxCell id="BhxZUhrIALIuKVkP4dP1-12" value="Null" style="text;strokeColor=none;align=center;fillColor=none;html=1;verticalAlign=middle;whiteSpace=wrap;rounded=0;fontSize=28;" parent="BhxZUhrIALIuKVkP4dP1-54" vertex="1">
          <mxGeometry x="310" y="132" width="60" height="30" as="geometry" />
        </mxCell>
        <mxCell id="BhxZUhrIALIuKVkP4dP1-20" value="" style="edgeStyle=none;curved=1;rounded=0;orthogonalLoop=1;jettySize=auto;html=1;fontSize=12;startSize=8;endSize=8;" parent="BhxZUhrIALIuKVkP4dP1-54" source="BhxZUhrIALIuKVkP4dP1-14" target="BhxZUhrIALIuKVkP4dP1-1" edge="1">
          <mxGeometry relative="1" as="geometry" />
        </mxCell>
        <mxCell id="BhxZUhrIALIuKVkP4dP1-14" value="Head" style="text;strokeColor=none;align=center;fillColor=none;html=1;verticalAlign=middle;whiteSpace=wrap;rounded=0;fontSize=20;" parent="BhxZUhrIALIuKVkP4dP1-54" vertex="1">
          <mxGeometry x="26" y="239" width="60" height="30" as="geometry" />
        </mxCell>
        <mxCell id="BhxZUhrIALIuKVkP4dP1-19" value="" style="edgeStyle=none;curved=1;rounded=0;orthogonalLoop=1;jettySize=auto;html=1;fontSize=12;startSize=8;endSize=8;" parent="BhxZUhrIALIuKVkP4dP1-54" source="BhxZUhrIALIuKVkP4dP1-15" target="BhxZUhrIALIuKVkP4dP1-1" edge="1">
          <mxGeometry relative="1" as="geometry" />
        </mxCell>
        <mxCell id="BhxZUhrIALIuKVkP4dP1-15" value="Tail" style="text;strokeColor=none;align=center;fillColor=none;html=1;verticalAlign=middle;whiteSpace=wrap;rounded=0;fontSize=20;" parent="BhxZUhrIALIuKVkP4dP1-54" vertex="1">
          <mxGeometry x="126" y="239" width="60" height="30" as="geometry" />
        </mxCell>
        <mxCell id="BhxZUhrIALIuKVkP4dP1-16" style="edgeStyle=none;curved=1;rounded=0;orthogonalLoop=1;jettySize=auto;html=1;exitX=0.5;exitY=1;exitDx=0;exitDy=0;fontSize=12;startSize=8;endSize=8;" parent="BhxZUhrIALIuKVkP4dP1-54" source="BhxZUhrIALIuKVkP4dP1-15" target="BhxZUhrIALIuKVkP4dP1-15" edge="1">
          <mxGeometry relative="1" as="geometry" />
        </mxCell>
        <mxCell id="BhxZUhrIALIuKVkP4dP1-24" value="Value" style="text;strokeColor=none;fillColor=none;html=1;align=center;verticalAlign=middle;whiteSpace=wrap;rounded=0;fontSize=16;" parent="BhxZUhrIALIuKVkP4dP1-54" vertex="1">
          <mxGeometry x="76" y="132" width="60" height="30" as="geometry" />
        </mxCell>
        <mxCell id="BhxZUhrIALIuKVkP4dP1-34" value="" style="edgeStyle=none;curved=1;rounded=0;orthogonalLoop=1;jettySize=auto;html=1;fontSize=12;startSize=8;endSize=8;" parent="BhxZUhrIALIuKVkP4dP1-54" source="BhxZUhrIALIuKVkP4dP1-28" target="BhxZUhrIALIuKVkP4dP1-1" edge="1">
          <mxGeometry relative="1" as="geometry" />
        </mxCell>
        <mxCell id="BhxZUhrIALIuKVkP4dP1-28" value="Node" style="text;strokeColor=none;align=center;fillColor=none;html=1;verticalAlign=middle;whiteSpace=wrap;rounded=0;fontSize=20;" parent="BhxZUhrIALIuKVkP4dP1-54" vertex="1">
          <mxGeometry x="236" y="10" width="60" height="30" as="geometry" />
        </mxCell>
        <mxCell id="BhxZUhrIALIuKVkP4dP1-64" value="Prepend&amp;nbsp;" style="text;strokeColor=none;align=center;fillColor=none;html=1;verticalAlign=middle;whiteSpace=wrap;rounded=0;fontSize=20;" parent="1" vertex="1">
          <mxGeometry x="-91" y="-151" width="60" height="30" as="geometry" />
        </mxCell>
        <mxCell id="BhxZUhrIALIuKVkP4dP1-100" value="" style="group" parent="1" vertex="1" connectable="0">
          <mxGeometry x="628" y="-238" width="120" height="60" as="geometry" />
        </mxCell>
        <mxCell id="BhxZUhrIALIuKVkP4dP1-98" value="" style="rounded=0;whiteSpace=wrap;html=1;" parent="BhxZUhrIALIuKVkP4dP1-100" vertex="1">
          <mxGeometry width="120" height="60" as="geometry" />
        </mxCell>
        <mxCell id="BhxZUhrIALIuKVkP4dP1-99" value="Value" style="text;strokeColor=none;align=center;fillColor=none;html=1;verticalAlign=middle;whiteSpace=wrap;rounded=0;fontSize=16;" parent="BhxZUhrIALIuKVkP4dP1-100" vertex="1">
          <mxGeometry x="30" y="15" width="60" height="30" as="geometry" />
        </mxCell>
        <mxCell id="BhxZUhrIALIuKVkP4dP1-101" value="" style="group;labelBackgroundColor=none;" parent="1" vertex="1" connectable="0">
          <mxGeometry x="56" y="-75" width="120" height="60" as="geometry" />
        </mxCell>
        <mxCell id="BhxZUhrIALIuKVkP4dP1-102" value="" style="rounded=0;whiteSpace=wrap;html=1;fillColor=#a0522d;fontColor=#ffffff;strokeColor=#6D1F00;" parent="BhxZUhrIALIuKVkP4dP1-101" vertex="1">
          <mxGeometry width="120" height="60" as="geometry" />
        </mxCell>
        <mxCell id="BhxZUhrIALIuKVkP4dP1-103" value="5" style="text;align=center;html=1;verticalAlign=middle;whiteSpace=wrap;rounded=0;fontSize=16;" parent="BhxZUhrIALIuKVkP4dP1-101" vertex="1">
          <mxGeometry x="30" y="15" width="60" height="30" as="geometry" />
        </mxCell>
        <mxCell id="BhxZUhrIALIuKVkP4dP1-104" value="" style="group;" parent="1" vertex="1" connectable="0">
          <mxGeometry x="220" y="-75" width="120" height="60" as="geometry" />
        </mxCell>
        <mxCell id="BhxZUhrIALIuKVkP4dP1-105" value="" style="rounded=0;whiteSpace=wrap;html=1;fillColor=#a0522d;fontColor=#ffffff;strokeColor=#6D1F00;" parent="BhxZUhrIALIuKVkP4dP1-104" vertex="1">
          <mxGeometry width="120" height="60" as="geometry" />
        </mxCell>
        <mxCell id="BhxZUhrIALIuKVkP4dP1-106" value="6" style="text;strokeColor=none;align=center;fillColor=none;html=1;verticalAlign=middle;whiteSpace=wrap;rounded=0;fontSize=16;" parent="BhxZUhrIALIuKVkP4dP1-104" vertex="1">
          <mxGeometry x="30" y="15" width="60" height="30" as="geometry" />
        </mxCell>
        <mxCell id="BhxZUhrIALIuKVkP4dP1-108" style="edgeStyle=none;curved=1;rounded=0;orthogonalLoop=1;jettySize=auto;html=1;fontSize=12;startSize=8;endSize=8;" parent="1" source="BhxZUhrIALIuKVkP4dP1-102" target="BhxZUhrIALIuKVkP4dP1-105" edge="1">
          <mxGeometry relative="1" as="geometry" />
        </mxCell>
        <mxCell id="BhxZUhrIALIuKVkP4dP1-109" value="" style="group;" parent="1" vertex="1" connectable="0">
          <mxGeometry x="383" y="-75" width="120" height="60" as="geometry" />
        </mxCell>
        <mxCell id="BhxZUhrIALIuKVkP4dP1-110" value="" style="rounded=0;whiteSpace=wrap;html=1;fillColor=#a0522d;fontColor=#ffffff;strokeColor=#6D1F00;" parent="BhxZUhrIALIuKVkP4dP1-109" vertex="1">
          <mxGeometry width="120" height="60" as="geometry" />
        </mxCell>
        <mxCell id="BhxZUhrIALIuKVkP4dP1-111" value="7" style="text;strokeColor=none;align=center;fillColor=none;html=1;verticalAlign=middle;whiteSpace=wrap;rounded=0;fontSize=16;" parent="BhxZUhrIALIuKVkP4dP1-109" vertex="1">
          <mxGeometry x="30" y="15" width="60" height="30" as="geometry" />
        </mxCell>
        <mxCell id="BhxZUhrIALIuKVkP4dP1-113" style="edgeStyle=none;curved=1;rounded=0;orthogonalLoop=1;jettySize=auto;html=1;entryX=0;entryY=0.5;entryDx=0;entryDy=0;fontSize=12;startSize=8;endSize=8;" parent="1" source="BhxZUhrIALIuKVkP4dP1-105" target="BhxZUhrIALIuKVkP4dP1-110" edge="1">
          <mxGeometry relative="1" as="geometry" />
        </mxCell>
        <mxCell id="BhxZUhrIALIuKVkP4dP1-114" value="Null" style="text;strokeColor=none;align=center;fillColor=none;html=1;verticalAlign=middle;whiteSpace=wrap;rounded=0;fontSize=28;" parent="1" vertex="1">
          <mxGeometry x="556" y="-60" width="60" height="30" as="geometry" />
        </mxCell>
        <mxCell id="BhxZUhrIALIuKVkP4dP1-115" value="" style="edgeStyle=none;curved=1;rounded=0;orthogonalLoop=1;jettySize=auto;html=1;fontSize=12;startSize=8;endSize=8;" parent="1" source="BhxZUhrIALIuKVkP4dP1-110" target="BhxZUhrIALIuKVkP4dP1-114" edge="1">
          <mxGeometry relative="1" as="geometry" />
        </mxCell>
        <mxCell id="BhxZUhrIALIuKVkP4dP1-118" style="edgeStyle=none;curved=1;rounded=0;orthogonalLoop=1;jettySize=auto;html=1;entryX=0.5;entryY=1;entryDx=0;entryDy=0;fontSize=12;startSize=8;endSize=8;" parent="1" source="BhxZUhrIALIuKVkP4dP1-116" target="BhxZUhrIALIuKVkP4dP1-102" edge="1">
          <mxGeometry relative="1" as="geometry" />
        </mxCell>
        <mxCell id="BhxZUhrIALIuKVkP4dP1-116" value="Head" style="text;strokeColor=none;align=center;fillColor=none;html=1;verticalAlign=middle;whiteSpace=wrap;rounded=0;fontSize=20;" parent="1" vertex="1">
          <mxGeometry x="86" y="25" width="60" height="30" as="geometry" />
        </mxCell>
        <mxCell id="BhxZUhrIALIuKVkP4dP1-120" style="edgeStyle=none;curved=1;rounded=0;orthogonalLoop=1;jettySize=auto;html=1;entryX=0.5;entryY=1;entryDx=0;entryDy=0;fontSize=12;startSize=8;endSize=8;" parent="1" source="BhxZUhrIALIuKVkP4dP1-119" target="BhxZUhrIALIuKVkP4dP1-110" edge="1">
          <mxGeometry relative="1" as="geometry" />
        </mxCell>
        <mxCell id="BhxZUhrIALIuKVkP4dP1-119" value="Tail" style="text;strokeColor=none;align=center;fillColor=none;html=1;verticalAlign=middle;whiteSpace=wrap;rounded=0;fontSize=20;" parent="1" vertex="1">
          <mxGeometry x="413" y="25" width="60" height="30" as="geometry" />
        </mxCell>
        <mxCell id="BhxZUhrIALIuKVkP4dP1-140" value="" style="group;labelBackgroundColor=none;" parent="1" vertex="1" connectable="0">
          <mxGeometry x="66" y="109" width="120" height="60" as="geometry" />
        </mxCell>
        <mxCell id="BhxZUhrIALIuKVkP4dP1-141" value="" style="rounded=0;whiteSpace=wrap;html=1;fillColor=#a0522d;fontColor=#ffffff;strokeColor=#6D1F00;" parent="BhxZUhrIALIuKVkP4dP1-140" vertex="1">
          <mxGeometry width="120" height="60" as="geometry" />
        </mxCell>
        <mxCell id="BhxZUhrIALIuKVkP4dP1-142" value="5" style="text;align=center;html=1;verticalAlign=middle;whiteSpace=wrap;rounded=0;fontSize=16;" parent="BhxZUhrIALIuKVkP4dP1-140" vertex="1">
          <mxGeometry x="30" y="15" width="60" height="30" as="geometry" />
        </mxCell>
        <mxCell id="BhxZUhrIALIuKVkP4dP1-143" value="" style="group;" parent="1" vertex="1" connectable="0">
          <mxGeometry x="230" y="109" width="120" height="60" as="geometry" />
        </mxCell>
        <mxCell id="BhxZUhrIALIuKVkP4dP1-144" value="" style="rounded=0;whiteSpace=wrap;html=1;fillColor=#a0522d;fontColor=#ffffff;strokeColor=#6D1F00;" parent="BhxZUhrIALIuKVkP4dP1-143" vertex="1">
          <mxGeometry width="120" height="60" as="geometry" />
        </mxCell>
        <mxCell id="BhxZUhrIALIuKVkP4dP1-145" value="6" style="text;strokeColor=none;align=center;fillColor=none;html=1;verticalAlign=middle;whiteSpace=wrap;rounded=0;fontSize=16;" parent="BhxZUhrIALIuKVkP4dP1-143" vertex="1">
          <mxGeometry x="30" y="15" width="60" height="30" as="geometry" />
        </mxCell>
        <mxCell id="BhxZUhrIALIuKVkP4dP1-146" style="edgeStyle=none;curved=1;rounded=0;orthogonalLoop=1;jettySize=auto;html=1;fontSize=12;startSize=8;endSize=8;" parent="1" source="BhxZUhrIALIuKVkP4dP1-141" target="BhxZUhrIALIuKVkP4dP1-144" edge="1">
          <mxGeometry relative="1" as="geometry" />
        </mxCell>
        <mxCell id="BhxZUhrIALIuKVkP4dP1-147" value="" style="group;" parent="1" vertex="1" connectable="0">
          <mxGeometry x="393" y="109" width="120" height="60" as="geometry" />
        </mxCell>
        <mxCell id="BhxZUhrIALIuKVkP4dP1-148" value="" style="rounded=0;whiteSpace=wrap;html=1;fillColor=#a0522d;fontColor=#ffffff;strokeColor=#6D1F00;" parent="BhxZUhrIALIuKVkP4dP1-147" vertex="1">
          <mxGeometry width="120" height="60" as="geometry" />
        </mxCell>
        <mxCell id="BhxZUhrIALIuKVkP4dP1-149" value="7" style="text;strokeColor=none;align=center;fillColor=none;html=1;verticalAlign=middle;whiteSpace=wrap;rounded=0;fontSize=16;" parent="BhxZUhrIALIuKVkP4dP1-147" vertex="1">
          <mxGeometry x="30" y="15" width="60" height="30" as="geometry" />
        </mxCell>
        <mxCell id="BhxZUhrIALIuKVkP4dP1-150" style="edgeStyle=none;curved=1;rounded=0;orthogonalLoop=1;jettySize=auto;html=1;entryX=0;entryY=0.5;entryDx=0;entryDy=0;fontSize=12;startSize=8;endSize=8;" parent="1" source="BhxZUhrIALIuKVkP4dP1-144" target="BhxZUhrIALIuKVkP4dP1-148" edge="1">
          <mxGeometry relative="1" as="geometry" />
        </mxCell>
        <mxCell id="BhxZUhrIALIuKVkP4dP1-151" value="Null" style="text;strokeColor=none;align=center;fillColor=none;html=1;verticalAlign=middle;whiteSpace=wrap;rounded=0;fontSize=28;" parent="1" vertex="1">
          <mxGeometry x="566" y="124" width="60" height="30" as="geometry" />
        </mxCell>
        <mxCell id="BhxZUhrIALIuKVkP4dP1-152" value="" style="edgeStyle=none;curved=1;rounded=0;orthogonalLoop=1;jettySize=auto;html=1;fontSize=12;startSize=8;endSize=8;" parent="1" source="BhxZUhrIALIuKVkP4dP1-148" target="BhxZUhrIALIuKVkP4dP1-151" edge="1">
          <mxGeometry relative="1" as="geometry" />
        </mxCell>
        <mxCell id="BhxZUhrIALIuKVkP4dP1-153" style="edgeStyle=none;curved=1;rounded=0;orthogonalLoop=1;jettySize=auto;html=1;entryX=0.5;entryY=1;entryDx=0;entryDy=0;fontSize=12;startSize=8;endSize=8;" parent="1" source="BhxZUhrIALIuKVkP4dP1-154" target="BhxZUhrIALIuKVkP4dP1-141" edge="1">
          <mxGeometry relative="1" as="geometry" />
        </mxCell>
        <mxCell id="BhxZUhrIALIuKVkP4dP1-154" value="Head" style="text;strokeColor=none;align=center;fillColor=none;html=1;verticalAlign=middle;whiteSpace=wrap;rounded=0;fontSize=20;" parent="1" vertex="1">
          <mxGeometry x="96" y="209" width="60" height="30" as="geometry" />
        </mxCell>
        <mxCell id="BhxZUhrIALIuKVkP4dP1-155" style="edgeStyle=none;curved=1;rounded=0;orthogonalLoop=1;jettySize=auto;html=1;entryX=0.5;entryY=1;entryDx=0;entryDy=0;fontSize=12;startSize=8;endSize=8;" parent="1" source="BhxZUhrIALIuKVkP4dP1-156" target="BhxZUhrIALIuKVkP4dP1-148" edge="1">
          <mxGeometry relative="1" as="geometry" />
        </mxCell>
        <mxCell id="BhxZUhrIALIuKVkP4dP1-156" value="Tail" style="text;strokeColor=none;align=center;fillColor=none;html=1;verticalAlign=middle;whiteSpace=wrap;rounded=0;fontSize=20;" parent="1" vertex="1">
          <mxGeometry x="423" y="209" width="60" height="30" as="geometry" />
        </mxCell>
        <mxCell id="BhxZUhrIALIuKVkP4dP1-158" value="" style="group;" parent="1" vertex="1" connectable="0">
          <mxGeometry x="-108" y="109" width="120" height="60" as="geometry" />
        </mxCell>
        <mxCell id="BhxZUhrIALIuKVkP4dP1-159" value="" style="rounded=0;whiteSpace=wrap;html=1;fillColor=#647687;strokeColor=#314354;fontColor=#ffffff;" parent="BhxZUhrIALIuKVkP4dP1-158" vertex="1">
          <mxGeometry width="120" height="60" as="geometry" />
        </mxCell>
        <mxCell id="BhxZUhrIALIuKVkP4dP1-160" value="3" style="text;strokeColor=none;align=center;fillColor=none;html=1;verticalAlign=middle;whiteSpace=wrap;rounded=0;fontSize=16;" parent="BhxZUhrIALIuKVkP4dP1-158" vertex="1">
          <mxGeometry x="30" y="15" width="60" height="30" as="geometry" />
        </mxCell>
        <mxCell id="BhxZUhrIALIuKVkP4dP1-161" style="edgeStyle=none;curved=1;rounded=0;orthogonalLoop=1;jettySize=auto;html=1;entryX=0;entryY=0.5;entryDx=0;entryDy=0;fontSize=12;startSize=8;endSize=8;" parent="1" source="BhxZUhrIALIuKVkP4dP1-159" target="BhxZUhrIALIuKVkP4dP1-141" edge="1">
          <mxGeometry relative="1" as="geometry" />
        </mxCell>
        <mxCell id="BhxZUhrIALIuKVkP4dP1-162" value="" style="group;labelBackgroundColor=none;" parent="1" vertex="1" connectable="0">
          <mxGeometry x="68" y="261" width="120" height="60" as="geometry" />
        </mxCell>
        <mxCell id="BhxZUhrIALIuKVkP4dP1-163" value="" style="rounded=0;whiteSpace=wrap;html=1;fillColor=#a0522d;fontColor=#ffffff;strokeColor=#6D1F00;" parent="BhxZUhrIALIuKVkP4dP1-162" vertex="1">
          <mxGeometry width="120" height="60" as="geometry" />
        </mxCell>
        <mxCell id="BhxZUhrIALIuKVkP4dP1-164" value="5" style="text;align=center;html=1;verticalAlign=middle;whiteSpace=wrap;rounded=0;fontSize=16;" parent="BhxZUhrIALIuKVkP4dP1-162" vertex="1">
          <mxGeometry x="30" y="15" width="60" height="30" as="geometry" />
        </mxCell>
        <mxCell id="BhxZUhrIALIuKVkP4dP1-165" value="" style="group;" parent="1" vertex="1" connectable="0">
          <mxGeometry x="232" y="261" width="120" height="60" as="geometry" />
        </mxCell>
        <mxCell id="BhxZUhrIALIuKVkP4dP1-166" value="" style="rounded=0;whiteSpace=wrap;html=1;fillColor=#a0522d;fontColor=#ffffff;strokeColor=#6D1F00;" parent="BhxZUhrIALIuKVkP4dP1-165" vertex="1">
          <mxGeometry width="120" height="60" as="geometry" />
        </mxCell>
        <mxCell id="BhxZUhrIALIuKVkP4dP1-167" value="6" style="text;strokeColor=none;align=center;fillColor=none;html=1;verticalAlign=middle;whiteSpace=wrap;rounded=0;fontSize=16;" parent="BhxZUhrIALIuKVkP4dP1-165" vertex="1">
          <mxGeometry x="30" y="15" width="60" height="30" as="geometry" />
        </mxCell>
        <mxCell id="BhxZUhrIALIuKVkP4dP1-168" style="edgeStyle=none;curved=1;rounded=0;orthogonalLoop=1;jettySize=auto;html=1;fontSize=12;startSize=8;endSize=8;" parent="1" source="BhxZUhrIALIuKVkP4dP1-163" target="BhxZUhrIALIuKVkP4dP1-166" edge="1">
          <mxGeometry relative="1" as="geometry" />
        </mxCell>
        <mxCell id="BhxZUhrIALIuKVkP4dP1-169" value="" style="group;" parent="1" vertex="1" connectable="0">
          <mxGeometry x="395" y="261" width="120" height="60" as="geometry" />
        </mxCell>
        <mxCell id="BhxZUhrIALIuKVkP4dP1-170" value="" style="rounded=0;whiteSpace=wrap;html=1;fillColor=#a0522d;fontColor=#ffffff;strokeColor=#6D1F00;" parent="BhxZUhrIALIuKVkP4dP1-169" vertex="1">
          <mxGeometry width="120" height="60" as="geometry" />
        </mxCell>
        <mxCell id="BhxZUhrIALIuKVkP4dP1-171" value="7" style="text;strokeColor=none;align=center;fillColor=none;html=1;verticalAlign=middle;whiteSpace=wrap;rounded=0;fontSize=16;" parent="BhxZUhrIALIuKVkP4dP1-169" vertex="1">
          <mxGeometry x="30" y="15" width="60" height="30" as="geometry" />
        </mxCell>
        <mxCell id="BhxZUhrIALIuKVkP4dP1-172" style="edgeStyle=none;curved=1;rounded=0;orthogonalLoop=1;jettySize=auto;html=1;entryX=0;entryY=0.5;entryDx=0;entryDy=0;fontSize=12;startSize=8;endSize=8;" parent="1" source="BhxZUhrIALIuKVkP4dP1-166" target="BhxZUhrIALIuKVkP4dP1-170" edge="1">
          <mxGeometry relative="1" as="geometry" />
        </mxCell>
        <mxCell id="BhxZUhrIALIuKVkP4dP1-173" value="Null" style="text;strokeColor=none;align=center;fillColor=none;html=1;verticalAlign=middle;whiteSpace=wrap;rounded=0;fontSize=28;" parent="1" vertex="1">
          <mxGeometry x="568" y="276" width="60" height="30" as="geometry" />
        </mxCell>
        <mxCell id="BhxZUhrIALIuKVkP4dP1-174" value="" style="edgeStyle=none;curved=1;rounded=0;orthogonalLoop=1;jettySize=auto;html=1;fontSize=12;startSize=8;endSize=8;" parent="1" source="BhxZUhrIALIuKVkP4dP1-170" target="BhxZUhrIALIuKVkP4dP1-173" edge="1">
          <mxGeometry relative="1" as="geometry" />
        </mxCell>
        <mxCell id="BhxZUhrIALIuKVkP4dP1-187" style="edgeStyle=none;curved=1;rounded=0;orthogonalLoop=1;jettySize=auto;html=1;entryX=0.5;entryY=1;entryDx=0;entryDy=0;fontSize=12;startSize=8;endSize=8;" parent="1" source="BhxZUhrIALIuKVkP4dP1-176" target="BhxZUhrIALIuKVkP4dP1-180" edge="1">
          <mxGeometry relative="1" as="geometry" />
        </mxCell>
        <mxCell id="BhxZUhrIALIuKVkP4dP1-176" value="Head" style="text;strokeColor=none;align=center;fillColor=none;html=1;verticalAlign=middle;whiteSpace=wrap;rounded=0;fontSize=20;" parent="1" vertex="1">
          <mxGeometry x="-76" y="361" width="60" height="30" as="geometry" />
        </mxCell>
        <mxCell id="BhxZUhrIALIuKVkP4dP1-177" style="edgeStyle=none;curved=1;rounded=0;orthogonalLoop=1;jettySize=auto;html=1;entryX=0.5;entryY=1;entryDx=0;entryDy=0;fontSize=12;startSize=8;endSize=8;" parent="1" source="BhxZUhrIALIuKVkP4dP1-178" target="BhxZUhrIALIuKVkP4dP1-170" edge="1">
          <mxGeometry relative="1" as="geometry" />
        </mxCell>
        <mxCell id="BhxZUhrIALIuKVkP4dP1-178" value="Tail" style="text;strokeColor=none;align=center;fillColor=none;html=1;verticalAlign=middle;whiteSpace=wrap;rounded=0;fontSize=20;" parent="1" vertex="1">
          <mxGeometry x="425" y="361" width="60" height="30" as="geometry" />
        </mxCell>
        <mxCell id="BhxZUhrIALIuKVkP4dP1-179" value="" style="group;" parent="1" vertex="1" connectable="0">
          <mxGeometry x="-106" y="261" width="120" height="60" as="geometry" />
        </mxCell>
        <mxCell id="BhxZUhrIALIuKVkP4dP1-180" value="" style="rounded=0;whiteSpace=wrap;html=1;fillColor=#a0522d;strokeColor=#6D1F00;fontColor=#ffffff;" parent="BhxZUhrIALIuKVkP4dP1-179" vertex="1">
          <mxGeometry width="120" height="60" as="geometry" />
        </mxCell>
        <mxCell id="BhxZUhrIALIuKVkP4dP1-181" value="3" style="text;strokeColor=none;align=center;fillColor=none;html=1;verticalAlign=middle;whiteSpace=wrap;rounded=0;fontSize=16;" parent="BhxZUhrIALIuKVkP4dP1-179" vertex="1">
          <mxGeometry x="30" y="15" width="60" height="30" as="geometry" />
        </mxCell>
        <mxCell id="BhxZUhrIALIuKVkP4dP1-182" style="edgeStyle=none;curved=1;rounded=0;orthogonalLoop=1;jettySize=auto;html=1;entryX=0;entryY=0.5;entryDx=0;entryDy=0;fontSize=12;startSize=8;endSize=8;" parent="1" source="BhxZUhrIALIuKVkP4dP1-180" target="BhxZUhrIALIuKVkP4dP1-163" edge="1">
          <mxGeometry relative="1" as="geometry" />
        </mxCell>
        <mxCell id="BhxZUhrIALIuKVkP4dP1-189" style="edgeStyle=none;curved=1;rounded=0;orthogonalLoop=1;jettySize=auto;html=1;entryX=0.5;entryY=1;entryDx=0;entryDy=0;fontSize=12;startSize=8;endSize=8;" parent="1" source="BhxZUhrIALIuKVkP4dP1-188" target="BhxZUhrIALIuKVkP4dP1-159" edge="1">
          <mxGeometry relative="1" as="geometry" />
        </mxCell>
        <mxCell id="BhxZUhrIALIuKVkP4dP1-188" value="New Node" style="text;strokeColor=none;align=center;fillColor=none;html=1;verticalAlign=middle;whiteSpace=wrap;rounded=0;fontSize=16;" parent="1" vertex="1">
          <mxGeometry x="-195" y="200" width="60" height="30" as="geometry" />
        </mxCell>
        <mxCell id="vtkgx3x8RDT8eSn7hY6H-1" value="O(1)" style="text;strokeColor=none;align=center;fillColor=none;html=1;verticalAlign=middle;whiteSpace=wrap;rounded=0;fontSize=16;" parent="1" vertex="1">
          <mxGeometry x="280" y="-245" width="60" height="30" as="geometry" />
        </mxCell>
      </root>
    </mxGraphModel>
  </diagram>
  <diagram id="uxwXFc_pyRfY3riVw_mc" name="Append">
    <mxGraphModel dx="2995" dy="1515" grid="0" gridSize="10" guides="1" tooltips="1" connect="1" arrows="1" fold="1" page="0" pageScale="1" pageWidth="850" pageHeight="1100" math="0" shadow="0">
      <root>
        <mxCell id="0" />
        <mxCell id="1" parent="0" />
        <mxCell id="TYLr26LhiQZUqynFhFyM-1" value="" style="rounded=0;whiteSpace=wrap;html=1;" parent="1" vertex="1">
          <mxGeometry x="5" y="-173" width="306" height="45" as="geometry" />
        </mxCell>
        <mxCell id="TYLr26LhiQZUqynFhFyM-2" value="Node" style="text;strokeColor=none;align=center;fillColor=none;html=1;verticalAlign=middle;whiteSpace=wrap;rounded=0;fontSize=20;" parent="1" vertex="1">
          <mxGeometry x="11" y="-166" width="60" height="30" as="geometry" />
        </mxCell>
        <mxCell id="TYLr26LhiQZUqynFhFyM-3" value="Null" style="text;strokeColor=none;align=center;fillColor=none;html=1;verticalAlign=middle;whiteSpace=wrap;rounded=0;fontSize=28;" parent="1" vertex="1">
          <mxGeometry x="90" y="-166" width="60" height="30" as="geometry" />
        </mxCell>
        <mxCell id="TYLr26LhiQZUqynFhFyM-4" value="Head" style="text;strokeColor=none;align=center;fillColor=none;html=1;verticalAlign=middle;whiteSpace=wrap;rounded=0;fontSize=20;" parent="1" vertex="1">
          <mxGeometry x="169" y="-166" width="60" height="30" as="geometry" />
        </mxCell>
        <mxCell id="TYLr26LhiQZUqynFhFyM-5" value="Tail" style="text;strokeColor=none;align=center;fillColor=none;html=1;verticalAlign=middle;whiteSpace=wrap;rounded=0;fontSize=20;" parent="1" vertex="1">
          <mxGeometry x="248" y="-166" width="60" height="30" as="geometry" />
        </mxCell>
        <mxCell id="TYLr26LhiQZUqynFhFyM-6" value="" style="group" parent="1" vertex="1" connectable="0">
          <mxGeometry x="-477" y="-136" width="482" height="356" as="geometry" />
        </mxCell>
        <mxCell id="TYLr26LhiQZUqynFhFyM-7" value="" style="rounded=0;whiteSpace=wrap;html=1;" parent="TYLr26LhiQZUqynFhFyM-6" vertex="1">
          <mxGeometry x="-25" y="-24" width="494" height="383" as="geometry" />
        </mxCell>
        <mxCell id="TYLr26LhiQZUqynFhFyM-8" value="" style="whiteSpace=wrap;html=1;" parent="TYLr26LhiQZUqynFhFyM-6" vertex="1">
          <mxGeometry y="75" width="384" height="212" as="geometry" />
        </mxCell>
        <mxCell id="TYLr26LhiQZUqynFhFyM-9" style="edgeStyle=none;curved=1;rounded=0;orthogonalLoop=1;jettySize=auto;html=1;fontSize=12;startSize=8;endSize=8;" parent="TYLr26LhiQZUqynFhFyM-6" source="TYLr26LhiQZUqynFhFyM-10" target="TYLr26LhiQZUqynFhFyM-12" edge="1">
          <mxGeometry relative="1" as="geometry" />
        </mxCell>
        <mxCell id="TYLr26LhiQZUqynFhFyM-10" value="" style="rounded=0;whiteSpace=wrap;html=1;fillColor=#e3c800;fontColor=#000000;strokeColor=#B09500;" parent="TYLr26LhiQZUqynFhFyM-6" vertex="1">
          <mxGeometry x="26" y="107" width="160" height="80" as="geometry" />
        </mxCell>
        <mxCell id="TYLr26LhiQZUqynFhFyM-11" value="Append&lt;div&gt;&amp;nbsp;Empty List&lt;/div&gt;" style="text;strokeColor=none;align=center;fillColor=none;html=1;verticalAlign=middle;whiteSpace=wrap;rounded=0;fontSize=16;" parent="TYLr26LhiQZUqynFhFyM-6" vertex="1">
          <mxGeometry x="26" width="60" height="30" as="geometry" />
        </mxCell>
        <mxCell id="TYLr26LhiQZUqynFhFyM-12" value="Null" style="text;strokeColor=none;align=center;fillColor=none;html=1;verticalAlign=middle;whiteSpace=wrap;rounded=0;fontSize=28;" parent="TYLr26LhiQZUqynFhFyM-6" vertex="1">
          <mxGeometry x="310" y="132" width="60" height="30" as="geometry" />
        </mxCell>
        <mxCell id="TYLr26LhiQZUqynFhFyM-13" value="" style="edgeStyle=none;curved=1;rounded=0;orthogonalLoop=1;jettySize=auto;html=1;fontSize=12;startSize=8;endSize=8;" parent="TYLr26LhiQZUqynFhFyM-6" source="TYLr26LhiQZUqynFhFyM-14" target="TYLr26LhiQZUqynFhFyM-10" edge="1">
          <mxGeometry relative="1" as="geometry" />
        </mxCell>
        <mxCell id="TYLr26LhiQZUqynFhFyM-14" value="Head" style="text;strokeColor=none;align=center;fillColor=none;html=1;verticalAlign=middle;whiteSpace=wrap;rounded=0;fontSize=20;" parent="TYLr26LhiQZUqynFhFyM-6" vertex="1">
          <mxGeometry x="26" y="239" width="60" height="30" as="geometry" />
        </mxCell>
        <mxCell id="TYLr26LhiQZUqynFhFyM-15" value="" style="edgeStyle=none;curved=1;rounded=0;orthogonalLoop=1;jettySize=auto;html=1;fontSize=12;startSize=8;endSize=8;" parent="TYLr26LhiQZUqynFhFyM-6" source="TYLr26LhiQZUqynFhFyM-16" target="TYLr26LhiQZUqynFhFyM-10" edge="1">
          <mxGeometry relative="1" as="geometry" />
        </mxCell>
        <mxCell id="TYLr26LhiQZUqynFhFyM-16" value="Tail" style="text;strokeColor=none;align=center;fillColor=none;html=1;verticalAlign=middle;whiteSpace=wrap;rounded=0;fontSize=20;" parent="TYLr26LhiQZUqynFhFyM-6" vertex="1">
          <mxGeometry x="126" y="239" width="60" height="30" as="geometry" />
        </mxCell>
        <mxCell id="TYLr26LhiQZUqynFhFyM-17" style="edgeStyle=none;curved=1;rounded=0;orthogonalLoop=1;jettySize=auto;html=1;exitX=0.5;exitY=1;exitDx=0;exitDy=0;fontSize=12;startSize=8;endSize=8;" parent="TYLr26LhiQZUqynFhFyM-6" source="TYLr26LhiQZUqynFhFyM-16" target="TYLr26LhiQZUqynFhFyM-16" edge="1">
          <mxGeometry relative="1" as="geometry" />
        </mxCell>
        <mxCell id="TYLr26LhiQZUqynFhFyM-18" value="Value" style="text;strokeColor=none;fillColor=none;html=1;align=center;verticalAlign=middle;whiteSpace=wrap;rounded=0;fontSize=16;" parent="TYLr26LhiQZUqynFhFyM-6" vertex="1">
          <mxGeometry x="76" y="132" width="60" height="30" as="geometry" />
        </mxCell>
        <mxCell id="TYLr26LhiQZUqynFhFyM-19" value="" style="edgeStyle=none;curved=1;rounded=0;orthogonalLoop=1;jettySize=auto;html=1;fontSize=12;startSize=8;endSize=8;" parent="TYLr26LhiQZUqynFhFyM-6" source="TYLr26LhiQZUqynFhFyM-20" target="TYLr26LhiQZUqynFhFyM-10" edge="1">
          <mxGeometry relative="1" as="geometry" />
        </mxCell>
        <mxCell id="TYLr26LhiQZUqynFhFyM-20" value="Node" style="text;strokeColor=none;align=center;fillColor=none;html=1;verticalAlign=middle;whiteSpace=wrap;rounded=0;fontSize=20;" parent="TYLr26LhiQZUqynFhFyM-6" vertex="1">
          <mxGeometry x="236" y="10" width="60" height="30" as="geometry" />
        </mxCell>
        <mxCell id="TYLr26LhiQZUqynFhFyM-21" value="Append" style="text;strokeColor=none;align=center;fillColor=none;html=1;verticalAlign=middle;whiteSpace=wrap;rounded=0;fontSize=20;" parent="1" vertex="1">
          <mxGeometry x="34" y="-79" width="60" height="30" as="geometry" />
        </mxCell>
        <mxCell id="TYLr26LhiQZUqynFhFyM-22" value="" style="group" parent="1" vertex="1" connectable="0">
          <mxGeometry x="753" y="-166" width="120" height="60" as="geometry" />
        </mxCell>
        <mxCell id="TYLr26LhiQZUqynFhFyM-23" value="" style="rounded=0;whiteSpace=wrap;html=1;" parent="TYLr26LhiQZUqynFhFyM-22" vertex="1">
          <mxGeometry width="120" height="60" as="geometry" />
        </mxCell>
        <mxCell id="TYLr26LhiQZUqynFhFyM-24" value="Value" style="text;strokeColor=none;align=center;fillColor=none;html=1;verticalAlign=middle;whiteSpace=wrap;rounded=0;fontSize=16;" parent="TYLr26LhiQZUqynFhFyM-22" vertex="1">
          <mxGeometry x="30" y="15" width="60" height="30" as="geometry" />
        </mxCell>
        <mxCell id="TYLr26LhiQZUqynFhFyM-25" value="" style="group;labelBackgroundColor=none;" parent="1" vertex="1" connectable="0">
          <mxGeometry x="181" y="-3" width="120" height="60" as="geometry" />
        </mxCell>
        <mxCell id="TYLr26LhiQZUqynFhFyM-26" value="" style="rounded=0;whiteSpace=wrap;html=1;fillColor=#a0522d;fontColor=#ffffff;strokeColor=#6D1F00;" parent="TYLr26LhiQZUqynFhFyM-25" vertex="1">
          <mxGeometry width="120" height="60" as="geometry" />
        </mxCell>
        <mxCell id="TYLr26LhiQZUqynFhFyM-27" value="5" style="text;align=center;html=1;verticalAlign=middle;whiteSpace=wrap;rounded=0;fontSize=16;" parent="TYLr26LhiQZUqynFhFyM-25" vertex="1">
          <mxGeometry x="30" y="15" width="60" height="30" as="geometry" />
        </mxCell>
        <mxCell id="TYLr26LhiQZUqynFhFyM-28" value="" style="group;" parent="1" vertex="1" connectable="0">
          <mxGeometry x="345" y="-3" width="120" height="60" as="geometry" />
        </mxCell>
        <mxCell id="TYLr26LhiQZUqynFhFyM-29" value="" style="rounded=0;whiteSpace=wrap;html=1;fillColor=#a0522d;fontColor=#ffffff;strokeColor=#6D1F00;" parent="TYLr26LhiQZUqynFhFyM-28" vertex="1">
          <mxGeometry width="120" height="60" as="geometry" />
        </mxCell>
        <mxCell id="TYLr26LhiQZUqynFhFyM-30" value="6" style="text;strokeColor=none;align=center;fillColor=none;html=1;verticalAlign=middle;whiteSpace=wrap;rounded=0;fontSize=16;" parent="TYLr26LhiQZUqynFhFyM-28" vertex="1">
          <mxGeometry x="30" y="15" width="60" height="30" as="geometry" />
        </mxCell>
        <mxCell id="TYLr26LhiQZUqynFhFyM-31" style="edgeStyle=none;curved=1;rounded=0;orthogonalLoop=1;jettySize=auto;html=1;fontSize=12;startSize=8;endSize=8;" parent="1" source="TYLr26LhiQZUqynFhFyM-26" target="TYLr26LhiQZUqynFhFyM-29" edge="1">
          <mxGeometry relative="1" as="geometry" />
        </mxCell>
        <mxCell id="TYLr26LhiQZUqynFhFyM-32" value="" style="group;" parent="1" vertex="1" connectable="0">
          <mxGeometry x="508" y="-3" width="120" height="60" as="geometry" />
        </mxCell>
        <mxCell id="TYLr26LhiQZUqynFhFyM-33" value="" style="rounded=0;whiteSpace=wrap;html=1;fillColor=#a0522d;fontColor=#ffffff;strokeColor=#6D1F00;" parent="TYLr26LhiQZUqynFhFyM-32" vertex="1">
          <mxGeometry width="120" height="60" as="geometry" />
        </mxCell>
        <mxCell id="TYLr26LhiQZUqynFhFyM-34" value="7" style="text;strokeColor=none;align=center;fillColor=none;html=1;verticalAlign=middle;whiteSpace=wrap;rounded=0;fontSize=16;" parent="TYLr26LhiQZUqynFhFyM-32" vertex="1">
          <mxGeometry x="30" y="15" width="60" height="30" as="geometry" />
        </mxCell>
        <mxCell id="TYLr26LhiQZUqynFhFyM-35" style="edgeStyle=none;curved=1;rounded=0;orthogonalLoop=1;jettySize=auto;html=1;entryX=0;entryY=0.5;entryDx=0;entryDy=0;fontSize=12;startSize=8;endSize=8;" parent="1" source="TYLr26LhiQZUqynFhFyM-29" target="TYLr26LhiQZUqynFhFyM-33" edge="1">
          <mxGeometry relative="1" as="geometry" />
        </mxCell>
        <mxCell id="TYLr26LhiQZUqynFhFyM-36" value="Null" style="text;strokeColor=none;align=center;fillColor=none;html=1;verticalAlign=middle;whiteSpace=wrap;rounded=0;fontSize=28;" parent="1" vertex="1">
          <mxGeometry x="681" y="12" width="60" height="30" as="geometry" />
        </mxCell>
        <mxCell id="TYLr26LhiQZUqynFhFyM-37" value="" style="edgeStyle=none;curved=1;rounded=0;orthogonalLoop=1;jettySize=auto;html=1;fontSize=12;startSize=8;endSize=8;" parent="1" source="TYLr26LhiQZUqynFhFyM-33" target="TYLr26LhiQZUqynFhFyM-36" edge="1">
          <mxGeometry relative="1" as="geometry" />
        </mxCell>
        <mxCell id="TYLr26LhiQZUqynFhFyM-38" style="edgeStyle=none;curved=1;rounded=0;orthogonalLoop=1;jettySize=auto;html=1;entryX=0.5;entryY=1;entryDx=0;entryDy=0;fontSize=12;startSize=8;endSize=8;" parent="1" source="TYLr26LhiQZUqynFhFyM-39" target="TYLr26LhiQZUqynFhFyM-26" edge="1">
          <mxGeometry relative="1" as="geometry" />
        </mxCell>
        <mxCell id="TYLr26LhiQZUqynFhFyM-39" value="Head" style="text;strokeColor=none;align=center;fillColor=none;html=1;verticalAlign=middle;whiteSpace=wrap;rounded=0;fontSize=20;" parent="1" vertex="1">
          <mxGeometry x="211" y="97" width="60" height="30" as="geometry" />
        </mxCell>
        <mxCell id="TYLr26LhiQZUqynFhFyM-40" style="edgeStyle=none;curved=1;rounded=0;orthogonalLoop=1;jettySize=auto;html=1;entryX=0.5;entryY=1;entryDx=0;entryDy=0;fontSize=12;startSize=8;endSize=8;" parent="1" source="TYLr26LhiQZUqynFhFyM-41" target="TYLr26LhiQZUqynFhFyM-33" edge="1">
          <mxGeometry relative="1" as="geometry" />
        </mxCell>
        <mxCell id="TYLr26LhiQZUqynFhFyM-41" value="Tail" style="text;strokeColor=none;align=center;fillColor=none;html=1;verticalAlign=middle;whiteSpace=wrap;rounded=0;fontSize=20;" parent="1" vertex="1">
          <mxGeometry x="538" y="97" width="60" height="30" as="geometry" />
        </mxCell>
        <mxCell id="TYLr26LhiQZUqynFhFyM-59" value="" style="group;" parent="1" vertex="1" connectable="0">
          <mxGeometry x="508" y="163" width="120" height="60" as="geometry" />
        </mxCell>
        <mxCell id="TYLr26LhiQZUqynFhFyM-60" value="8" style="rounded=0;whiteSpace=wrap;html=1;fillColor=#647687;strokeColor=#314354;fontColor=#ffffff;" parent="TYLr26LhiQZUqynFhFyM-59" vertex="1">
          <mxGeometry width="120" height="60" as="geometry" />
        </mxCell>
        <mxCell id="LK3Xpps2gmFcGyPtaR7A-1" value="" style="edgeStyle=none;curved=1;rounded=0;orthogonalLoop=1;jettySize=auto;html=1;fontSize=12;startSize=8;endSize=8;" parent="1" source="TYLr26LhiQZUqynFhFyM-85" target="TYLr26LhiQZUqynFhFyM-60" edge="1">
          <mxGeometry relative="1" as="geometry" />
        </mxCell>
        <mxCell id="TYLr26LhiQZUqynFhFyM-85" value="New Node" style="text;strokeColor=none;align=center;fillColor=none;html=1;verticalAlign=middle;whiteSpace=wrap;rounded=0;fontSize=16;" parent="1" vertex="1">
          <mxGeometry x="540" y="260" width="60" height="30" as="geometry" />
        </mxCell>
        <mxCell id="LK3Xpps2gmFcGyPtaR7A-2" value="" style="group;labelBackgroundColor=none;" parent="1" vertex="1" connectable="0">
          <mxGeometry x="18" y="163" width="120" height="60" as="geometry" />
        </mxCell>
        <mxCell id="LK3Xpps2gmFcGyPtaR7A-3" value="" style="rounded=0;whiteSpace=wrap;html=1;fillColor=#a0522d;fontColor=#ffffff;strokeColor=#6D1F00;" parent="LK3Xpps2gmFcGyPtaR7A-2" vertex="1">
          <mxGeometry width="120" height="60" as="geometry" />
        </mxCell>
        <mxCell id="LK3Xpps2gmFcGyPtaR7A-4" value="5" style="text;align=center;html=1;verticalAlign=middle;whiteSpace=wrap;rounded=0;fontSize=16;" parent="LK3Xpps2gmFcGyPtaR7A-2" vertex="1">
          <mxGeometry x="30" y="15" width="60" height="30" as="geometry" />
        </mxCell>
        <mxCell id="LK3Xpps2gmFcGyPtaR7A-5" value="" style="group;" parent="1" vertex="1" connectable="0">
          <mxGeometry x="182" y="163" width="120" height="60" as="geometry" />
        </mxCell>
        <mxCell id="LK3Xpps2gmFcGyPtaR7A-6" value="" style="rounded=0;whiteSpace=wrap;html=1;fillColor=#a0522d;fontColor=#ffffff;strokeColor=#6D1F00;" parent="LK3Xpps2gmFcGyPtaR7A-5" vertex="1">
          <mxGeometry width="120" height="60" as="geometry" />
        </mxCell>
        <mxCell id="LK3Xpps2gmFcGyPtaR7A-7" value="6" style="text;strokeColor=none;align=center;fillColor=none;html=1;verticalAlign=middle;whiteSpace=wrap;rounded=0;fontSize=16;" parent="LK3Xpps2gmFcGyPtaR7A-5" vertex="1">
          <mxGeometry x="30" y="15" width="60" height="30" as="geometry" />
        </mxCell>
        <mxCell id="LK3Xpps2gmFcGyPtaR7A-8" style="edgeStyle=none;curved=1;rounded=0;orthogonalLoop=1;jettySize=auto;html=1;fontSize=12;startSize=8;endSize=8;" parent="1" source="LK3Xpps2gmFcGyPtaR7A-3" target="LK3Xpps2gmFcGyPtaR7A-6" edge="1">
          <mxGeometry relative="1" as="geometry" />
        </mxCell>
        <mxCell id="LK3Xpps2gmFcGyPtaR7A-9" value="" style="group;" parent="1" vertex="1" connectable="0">
          <mxGeometry x="345" y="163" width="120" height="60" as="geometry" />
        </mxCell>
        <mxCell id="LK3Xpps2gmFcGyPtaR7A-10" value="" style="rounded=0;whiteSpace=wrap;html=1;fillColor=#a0522d;fontColor=#ffffff;strokeColor=#6D1F00;" parent="LK3Xpps2gmFcGyPtaR7A-9" vertex="1">
          <mxGeometry width="120" height="60" as="geometry" />
        </mxCell>
        <mxCell id="LK3Xpps2gmFcGyPtaR7A-11" value="7" style="text;strokeColor=none;align=center;fillColor=none;html=1;verticalAlign=middle;whiteSpace=wrap;rounded=0;fontSize=16;" parent="LK3Xpps2gmFcGyPtaR7A-9" vertex="1">
          <mxGeometry x="30" y="15" width="60" height="30" as="geometry" />
        </mxCell>
        <mxCell id="LK3Xpps2gmFcGyPtaR7A-12" style="edgeStyle=none;curved=1;rounded=0;orthogonalLoop=1;jettySize=auto;html=1;entryX=0;entryY=0.5;entryDx=0;entryDy=0;fontSize=12;startSize=8;endSize=8;" parent="1" source="LK3Xpps2gmFcGyPtaR7A-6" target="LK3Xpps2gmFcGyPtaR7A-10" edge="1">
          <mxGeometry relative="1" as="geometry" />
        </mxCell>
        <mxCell id="LK3Xpps2gmFcGyPtaR7A-13" value="Null" style="text;strokeColor=none;align=center;fillColor=none;html=1;verticalAlign=middle;whiteSpace=wrap;rounded=0;fontSize=28;" parent="1" vertex="1">
          <mxGeometry x="680" y="178" width="60" height="30" as="geometry" />
        </mxCell>
        <mxCell id="LK3Xpps2gmFcGyPtaR7A-15" style="edgeStyle=none;curved=1;rounded=0;orthogonalLoop=1;jettySize=auto;html=1;entryX=0.5;entryY=1;entryDx=0;entryDy=0;fontSize=12;startSize=8;endSize=8;" parent="1" source="LK3Xpps2gmFcGyPtaR7A-16" target="LK3Xpps2gmFcGyPtaR7A-3" edge="1">
          <mxGeometry relative="1" as="geometry" />
        </mxCell>
        <mxCell id="LK3Xpps2gmFcGyPtaR7A-16" value="Head" style="text;strokeColor=none;align=center;fillColor=none;html=1;verticalAlign=middle;whiteSpace=wrap;rounded=0;fontSize=20;" parent="1" vertex="1">
          <mxGeometry x="48" y="263" width="60" height="30" as="geometry" />
        </mxCell>
        <mxCell id="LK3Xpps2gmFcGyPtaR7A-17" style="edgeStyle=none;curved=1;rounded=0;orthogonalLoop=1;jettySize=auto;html=1;entryX=0.5;entryY=1;entryDx=0;entryDy=0;fontSize=12;startSize=8;endSize=8;" parent="1" source="LK3Xpps2gmFcGyPtaR7A-18" target="LK3Xpps2gmFcGyPtaR7A-10" edge="1">
          <mxGeometry relative="1" as="geometry" />
        </mxCell>
        <mxCell id="LK3Xpps2gmFcGyPtaR7A-18" value="Tail" style="text;strokeColor=none;align=center;fillColor=none;html=1;verticalAlign=middle;whiteSpace=wrap;rounded=0;fontSize=20;" parent="1" vertex="1">
          <mxGeometry x="375" y="263" width="60" height="30" as="geometry" />
        </mxCell>
        <mxCell id="LK3Xpps2gmFcGyPtaR7A-20" value="" style="edgeStyle=none;curved=1;rounded=0;orthogonalLoop=1;jettySize=auto;html=1;fontSize=12;startSize=8;endSize=8;" parent="1" source="LK3Xpps2gmFcGyPtaR7A-10" target="TYLr26LhiQZUqynFhFyM-60" edge="1">
          <mxGeometry relative="1" as="geometry" />
        </mxCell>
        <mxCell id="LK3Xpps2gmFcGyPtaR7A-21" value="" style="edgeStyle=none;curved=1;rounded=0;orthogonalLoop=1;jettySize=auto;html=1;fontSize=12;startSize=8;endSize=8;" parent="1" source="TYLr26LhiQZUqynFhFyM-60" target="LK3Xpps2gmFcGyPtaR7A-13" edge="1">
          <mxGeometry relative="1" as="geometry" />
        </mxCell>
        <mxCell id="LK3Xpps2gmFcGyPtaR7A-22" value="" style="group;" parent="1" vertex="1" connectable="0">
          <mxGeometry x="504" y="328" width="120" height="60" as="geometry" />
        </mxCell>
        <mxCell id="LK3Xpps2gmFcGyPtaR7A-23" value="8" style="rounded=0;whiteSpace=wrap;html=1;fillColor=#a0522d;strokeColor=#6D1F00;fontColor=#ffffff;" parent="LK3Xpps2gmFcGyPtaR7A-22" vertex="1">
          <mxGeometry width="120" height="60" as="geometry" />
        </mxCell>
        <mxCell id="LK3Xpps2gmFcGyPtaR7A-24" value="" style="edgeStyle=none;curved=1;rounded=0;orthogonalLoop=1;jettySize=auto;html=1;fontSize=12;startSize=8;endSize=8;" parent="1" source="LK3Xpps2gmFcGyPtaR7A-25" target="LK3Xpps2gmFcGyPtaR7A-23" edge="1">
          <mxGeometry relative="1" as="geometry" />
        </mxCell>
        <mxCell id="LK3Xpps2gmFcGyPtaR7A-25" value="New Node" style="text;strokeColor=none;align=center;fillColor=none;html=1;verticalAlign=middle;whiteSpace=wrap;rounded=0;fontSize=16;" parent="1" vertex="1">
          <mxGeometry x="629" y="413" width="60" height="30" as="geometry" />
        </mxCell>
        <mxCell id="LK3Xpps2gmFcGyPtaR7A-26" value="" style="group;labelBackgroundColor=none;" parent="1" vertex="1" connectable="0">
          <mxGeometry x="14" y="328" width="120" height="60" as="geometry" />
        </mxCell>
        <mxCell id="LK3Xpps2gmFcGyPtaR7A-27" value="" style="rounded=0;whiteSpace=wrap;html=1;fillColor=#a0522d;fontColor=#ffffff;strokeColor=#6D1F00;" parent="LK3Xpps2gmFcGyPtaR7A-26" vertex="1">
          <mxGeometry width="120" height="60" as="geometry" />
        </mxCell>
        <mxCell id="LK3Xpps2gmFcGyPtaR7A-28" value="5" style="text;align=center;html=1;verticalAlign=middle;whiteSpace=wrap;rounded=0;fontSize=16;" parent="LK3Xpps2gmFcGyPtaR7A-26" vertex="1">
          <mxGeometry x="30" y="15" width="60" height="30" as="geometry" />
        </mxCell>
        <mxCell id="LK3Xpps2gmFcGyPtaR7A-29" value="" style="group;" parent="1" vertex="1" connectable="0">
          <mxGeometry x="178" y="328" width="120" height="60" as="geometry" />
        </mxCell>
        <mxCell id="LK3Xpps2gmFcGyPtaR7A-30" value="" style="rounded=0;whiteSpace=wrap;html=1;fillColor=#a0522d;fontColor=#ffffff;strokeColor=#6D1F00;" parent="LK3Xpps2gmFcGyPtaR7A-29" vertex="1">
          <mxGeometry width="120" height="60" as="geometry" />
        </mxCell>
        <mxCell id="LK3Xpps2gmFcGyPtaR7A-31" value="6" style="text;strokeColor=none;align=center;fillColor=none;html=1;verticalAlign=middle;whiteSpace=wrap;rounded=0;fontSize=16;" parent="LK3Xpps2gmFcGyPtaR7A-29" vertex="1">
          <mxGeometry x="30" y="15" width="60" height="30" as="geometry" />
        </mxCell>
        <mxCell id="LK3Xpps2gmFcGyPtaR7A-32" style="edgeStyle=none;curved=1;rounded=0;orthogonalLoop=1;jettySize=auto;html=1;fontSize=12;startSize=8;endSize=8;" parent="1" source="LK3Xpps2gmFcGyPtaR7A-27" target="LK3Xpps2gmFcGyPtaR7A-30" edge="1">
          <mxGeometry relative="1" as="geometry" />
        </mxCell>
        <mxCell id="LK3Xpps2gmFcGyPtaR7A-33" value="" style="group;" parent="1" vertex="1" connectable="0">
          <mxGeometry x="341" y="328" width="120" height="60" as="geometry" />
        </mxCell>
        <mxCell id="LK3Xpps2gmFcGyPtaR7A-34" value="" style="rounded=0;whiteSpace=wrap;html=1;fillColor=#a0522d;fontColor=#ffffff;strokeColor=#6D1F00;" parent="LK3Xpps2gmFcGyPtaR7A-33" vertex="1">
          <mxGeometry width="120" height="60" as="geometry" />
        </mxCell>
        <mxCell id="LK3Xpps2gmFcGyPtaR7A-35" value="7" style="text;strokeColor=none;align=center;fillColor=none;html=1;verticalAlign=middle;whiteSpace=wrap;rounded=0;fontSize=16;" parent="LK3Xpps2gmFcGyPtaR7A-33" vertex="1">
          <mxGeometry x="30" y="15" width="60" height="30" as="geometry" />
        </mxCell>
        <mxCell id="LK3Xpps2gmFcGyPtaR7A-36" style="edgeStyle=none;curved=1;rounded=0;orthogonalLoop=1;jettySize=auto;html=1;entryX=0;entryY=0.5;entryDx=0;entryDy=0;fontSize=12;startSize=8;endSize=8;" parent="1" source="LK3Xpps2gmFcGyPtaR7A-30" target="LK3Xpps2gmFcGyPtaR7A-34" edge="1">
          <mxGeometry relative="1" as="geometry" />
        </mxCell>
        <mxCell id="LK3Xpps2gmFcGyPtaR7A-37" value="Null" style="text;strokeColor=none;align=center;fillColor=none;html=1;verticalAlign=middle;whiteSpace=wrap;rounded=0;fontSize=28;" parent="1" vertex="1">
          <mxGeometry x="676" y="343" width="60" height="30" as="geometry" />
        </mxCell>
        <mxCell id="LK3Xpps2gmFcGyPtaR7A-38" style="edgeStyle=none;curved=1;rounded=0;orthogonalLoop=1;jettySize=auto;html=1;entryX=0.5;entryY=1;entryDx=0;entryDy=0;fontSize=12;startSize=8;endSize=8;" parent="1" source="LK3Xpps2gmFcGyPtaR7A-39" target="LK3Xpps2gmFcGyPtaR7A-27" edge="1">
          <mxGeometry relative="1" as="geometry" />
        </mxCell>
        <mxCell id="LK3Xpps2gmFcGyPtaR7A-39" value="Head" style="text;strokeColor=none;align=center;fillColor=none;html=1;verticalAlign=middle;whiteSpace=wrap;rounded=0;fontSize=20;" parent="1" vertex="1">
          <mxGeometry x="44" y="428" width="60" height="30" as="geometry" />
        </mxCell>
        <mxCell id="LK3Xpps2gmFcGyPtaR7A-44" value="" style="edgeStyle=none;curved=1;rounded=0;orthogonalLoop=1;jettySize=auto;html=1;fontSize=12;startSize=8;endSize=8;" parent="1" source="LK3Xpps2gmFcGyPtaR7A-41" target="LK3Xpps2gmFcGyPtaR7A-23" edge="1">
          <mxGeometry relative="1" as="geometry" />
        </mxCell>
        <mxCell id="LK3Xpps2gmFcGyPtaR7A-41" value="Tail" style="text;strokeColor=none;align=center;fillColor=none;html=1;verticalAlign=middle;whiteSpace=wrap;rounded=0;fontSize=20;" parent="1" vertex="1">
          <mxGeometry x="539" y="441" width="60" height="30" as="geometry" />
        </mxCell>
        <mxCell id="LK3Xpps2gmFcGyPtaR7A-42" value="" style="edgeStyle=none;curved=1;rounded=0;orthogonalLoop=1;jettySize=auto;html=1;fontSize=12;startSize=8;endSize=8;" parent="1" source="LK3Xpps2gmFcGyPtaR7A-34" target="LK3Xpps2gmFcGyPtaR7A-23" edge="1">
          <mxGeometry relative="1" as="geometry" />
        </mxCell>
        <mxCell id="LK3Xpps2gmFcGyPtaR7A-43" value="" style="edgeStyle=none;curved=1;rounded=0;orthogonalLoop=1;jettySize=auto;html=1;fontSize=12;startSize=8;endSize=8;" parent="1" source="LK3Xpps2gmFcGyPtaR7A-23" target="LK3Xpps2gmFcGyPtaR7A-37" edge="1">
          <mxGeometry relative="1" as="geometry" />
        </mxCell>
        <mxCell id="Zxu_PZdUeepgJ-WdGtbl-1" value="O(1)" style="text;strokeColor=none;align=center;fillColor=none;html=1;verticalAlign=middle;whiteSpace=wrap;rounded=0;fontSize=16;" parent="1" vertex="1">
          <mxGeometry x="399" y="-173" width="60" height="30" as="geometry" />
        </mxCell>
      </root>
    </mxGraphModel>
  </diagram>
  <diagram name="RemoveFirst" id="D7oYaFGotBvjz7g4d75_">
    <mxGraphModel dx="2446" dy="1236" grid="0" gridSize="10" guides="1" tooltips="1" connect="1" arrows="1" fold="1" page="0" pageScale="1" pageWidth="850" pageHeight="1100" math="0" shadow="0">
      <root>
        <mxCell id="ulN3Z-XiBUH94B2KhhdO-0" />
        <mxCell id="ulN3Z-XiBUH94B2KhhdO-1" parent="ulN3Z-XiBUH94B2KhhdO-0" />
        <mxCell id="ulN3Z-XiBUH94B2KhhdO-2" value="" style="rounded=0;whiteSpace=wrap;html=1;" parent="ulN3Z-XiBUH94B2KhhdO-1" vertex="1">
          <mxGeometry x="5" y="-173" width="306" height="45" as="geometry" />
        </mxCell>
        <mxCell id="ulN3Z-XiBUH94B2KhhdO-3" value="Node" style="text;strokeColor=none;align=center;fillColor=none;html=1;verticalAlign=middle;whiteSpace=wrap;rounded=0;fontSize=20;" parent="ulN3Z-XiBUH94B2KhhdO-1" vertex="1">
          <mxGeometry x="11" y="-166" width="60" height="30" as="geometry" />
        </mxCell>
        <mxCell id="ulN3Z-XiBUH94B2KhhdO-4" value="Null" style="text;strokeColor=none;align=center;fillColor=none;html=1;verticalAlign=middle;whiteSpace=wrap;rounded=0;fontSize=28;" parent="ulN3Z-XiBUH94B2KhhdO-1" vertex="1">
          <mxGeometry x="90" y="-166" width="60" height="30" as="geometry" />
        </mxCell>
        <mxCell id="ulN3Z-XiBUH94B2KhhdO-5" value="Head" style="text;strokeColor=none;align=center;fillColor=none;html=1;verticalAlign=middle;whiteSpace=wrap;rounded=0;fontSize=20;" parent="ulN3Z-XiBUH94B2KhhdO-1" vertex="1">
          <mxGeometry x="169" y="-166" width="60" height="30" as="geometry" />
        </mxCell>
        <mxCell id="ulN3Z-XiBUH94B2KhhdO-6" value="Tail" style="text;strokeColor=none;align=center;fillColor=none;html=1;verticalAlign=middle;whiteSpace=wrap;rounded=0;fontSize=20;" parent="ulN3Z-XiBUH94B2KhhdO-1" vertex="1">
          <mxGeometry x="248" y="-166" width="60" height="30" as="geometry" />
        </mxCell>
        <mxCell id="ulN3Z-XiBUH94B2KhhdO-22" value="RemoveFirst" style="text;strokeColor=none;align=center;fillColor=none;html=1;verticalAlign=middle;whiteSpace=wrap;rounded=0;fontSize=20;" parent="ulN3Z-XiBUH94B2KhhdO-1" vertex="1">
          <mxGeometry x="-247" y="-61" width="60" height="30" as="geometry" />
        </mxCell>
        <mxCell id="ulN3Z-XiBUH94B2KhhdO-23" value="" style="group" parent="ulN3Z-XiBUH94B2KhhdO-1" vertex="1" connectable="0">
          <mxGeometry x="753" y="-166" width="120" height="60" as="geometry" />
        </mxCell>
        <mxCell id="ulN3Z-XiBUH94B2KhhdO-24" value="" style="rounded=0;whiteSpace=wrap;html=1;" parent="ulN3Z-XiBUH94B2KhhdO-23" vertex="1">
          <mxGeometry width="120" height="60" as="geometry" />
        </mxCell>
        <mxCell id="ulN3Z-XiBUH94B2KhhdO-25" value="Value" style="text;strokeColor=none;align=center;fillColor=none;html=1;verticalAlign=middle;whiteSpace=wrap;rounded=0;fontSize=16;" parent="ulN3Z-XiBUH94B2KhhdO-23" vertex="1">
          <mxGeometry x="30" y="15" width="60" height="30" as="geometry" />
        </mxCell>
        <mxCell id="ulN3Z-XiBUH94B2KhhdO-26" value="" style="group;labelBackgroundColor=none;" parent="ulN3Z-XiBUH94B2KhhdO-1" vertex="1" connectable="0">
          <mxGeometry x="-20" y="7" width="120" height="60" as="geometry" />
        </mxCell>
        <mxCell id="ulN3Z-XiBUH94B2KhhdO-27" value="" style="rounded=0;whiteSpace=wrap;html=1;fillColor=#a0522d;fontColor=#ffffff;strokeColor=#6D1F00;" parent="ulN3Z-XiBUH94B2KhhdO-26" vertex="1">
          <mxGeometry width="120" height="60" as="geometry" />
        </mxCell>
        <mxCell id="ulN3Z-XiBUH94B2KhhdO-28" value="5" style="text;align=center;html=1;verticalAlign=middle;whiteSpace=wrap;rounded=0;fontSize=16;" parent="ulN3Z-XiBUH94B2KhhdO-26" vertex="1">
          <mxGeometry x="30" y="15" width="60" height="30" as="geometry" />
        </mxCell>
        <mxCell id="ulN3Z-XiBUH94B2KhhdO-29" value="" style="group;" parent="ulN3Z-XiBUH94B2KhhdO-1" vertex="1" connectable="0">
          <mxGeometry x="144" y="7" width="120" height="60" as="geometry" />
        </mxCell>
        <mxCell id="ulN3Z-XiBUH94B2KhhdO-30" value="" style="rounded=0;whiteSpace=wrap;html=1;fillColor=#a0522d;fontColor=#ffffff;strokeColor=#6D1F00;" parent="ulN3Z-XiBUH94B2KhhdO-29" vertex="1">
          <mxGeometry width="120" height="60" as="geometry" />
        </mxCell>
        <mxCell id="ulN3Z-XiBUH94B2KhhdO-31" value="6" style="text;strokeColor=none;align=center;fillColor=none;html=1;verticalAlign=middle;whiteSpace=wrap;rounded=0;fontSize=16;" parent="ulN3Z-XiBUH94B2KhhdO-29" vertex="1">
          <mxGeometry x="30" y="15" width="60" height="30" as="geometry" />
        </mxCell>
        <mxCell id="ulN3Z-XiBUH94B2KhhdO-32" style="edgeStyle=none;curved=1;rounded=0;orthogonalLoop=1;jettySize=auto;html=1;fontSize=12;startSize=8;endSize=8;" parent="ulN3Z-XiBUH94B2KhhdO-1" source="ulN3Z-XiBUH94B2KhhdO-27" target="ulN3Z-XiBUH94B2KhhdO-30" edge="1">
          <mxGeometry relative="1" as="geometry" />
        </mxCell>
        <mxCell id="ulN3Z-XiBUH94B2KhhdO-33" value="" style="group;" parent="ulN3Z-XiBUH94B2KhhdO-1" vertex="1" connectable="0">
          <mxGeometry x="307" y="7" width="120" height="60" as="geometry" />
        </mxCell>
        <mxCell id="ulN3Z-XiBUH94B2KhhdO-34" value="" style="rounded=0;whiteSpace=wrap;html=1;fillColor=#a0522d;fontColor=#ffffff;strokeColor=#6D1F00;" parent="ulN3Z-XiBUH94B2KhhdO-33" vertex="1">
          <mxGeometry width="120" height="60" as="geometry" />
        </mxCell>
        <mxCell id="ulN3Z-XiBUH94B2KhhdO-35" value="7" style="text;strokeColor=none;align=center;fillColor=none;html=1;verticalAlign=middle;whiteSpace=wrap;rounded=0;fontSize=16;" parent="ulN3Z-XiBUH94B2KhhdO-33" vertex="1">
          <mxGeometry x="30" y="15" width="60" height="30" as="geometry" />
        </mxCell>
        <mxCell id="ulN3Z-XiBUH94B2KhhdO-36" style="edgeStyle=none;curved=1;rounded=0;orthogonalLoop=1;jettySize=auto;html=1;entryX=0;entryY=0.5;entryDx=0;entryDy=0;fontSize=12;startSize=8;endSize=8;" parent="ulN3Z-XiBUH94B2KhhdO-1" source="ulN3Z-XiBUH94B2KhhdO-30" target="ulN3Z-XiBUH94B2KhhdO-34" edge="1">
          <mxGeometry relative="1" as="geometry" />
        </mxCell>
        <mxCell id="ulN3Z-XiBUH94B2KhhdO-37" value="Null" style="text;strokeColor=none;align=center;fillColor=none;html=1;verticalAlign=middle;whiteSpace=wrap;rounded=0;fontSize=28;" parent="ulN3Z-XiBUH94B2KhhdO-1" vertex="1">
          <mxGeometry x="480" y="22" width="60" height="30" as="geometry" />
        </mxCell>
        <mxCell id="ulN3Z-XiBUH94B2KhhdO-38" value="" style="edgeStyle=none;curved=1;rounded=0;orthogonalLoop=1;jettySize=auto;html=1;fontSize=12;startSize=8;endSize=8;" parent="ulN3Z-XiBUH94B2KhhdO-1" source="ulN3Z-XiBUH94B2KhhdO-34" target="ulN3Z-XiBUH94B2KhhdO-37" edge="1">
          <mxGeometry relative="1" as="geometry" />
        </mxCell>
        <mxCell id="ulN3Z-XiBUH94B2KhhdO-39" style="edgeStyle=none;curved=1;rounded=0;orthogonalLoop=1;jettySize=auto;html=1;entryX=0.5;entryY=1;entryDx=0;entryDy=0;fontSize=12;startSize=8;endSize=8;" parent="ulN3Z-XiBUH94B2KhhdO-1" source="ulN3Z-XiBUH94B2KhhdO-40" target="ulN3Z-XiBUH94B2KhhdO-27" edge="1">
          <mxGeometry relative="1" as="geometry" />
        </mxCell>
        <mxCell id="ulN3Z-XiBUH94B2KhhdO-40" value="Head" style="text;strokeColor=none;align=center;fillColor=none;html=1;verticalAlign=middle;whiteSpace=wrap;rounded=0;fontSize=20;" parent="ulN3Z-XiBUH94B2KhhdO-1" vertex="1">
          <mxGeometry x="10" y="107" width="60" height="30" as="geometry" />
        </mxCell>
        <mxCell id="ulN3Z-XiBUH94B2KhhdO-41" style="edgeStyle=none;curved=1;rounded=0;orthogonalLoop=1;jettySize=auto;html=1;entryX=0.5;entryY=1;entryDx=0;entryDy=0;fontSize=12;startSize=8;endSize=8;" parent="ulN3Z-XiBUH94B2KhhdO-1" source="ulN3Z-XiBUH94B2KhhdO-42" target="ulN3Z-XiBUH94B2KhhdO-34" edge="1">
          <mxGeometry relative="1" as="geometry" />
        </mxCell>
        <mxCell id="ulN3Z-XiBUH94B2KhhdO-42" value="Tail" style="text;strokeColor=none;align=center;fillColor=none;html=1;verticalAlign=middle;whiteSpace=wrap;rounded=0;fontSize=20;" parent="ulN3Z-XiBUH94B2KhhdO-1" vertex="1">
          <mxGeometry x="337" y="107" width="60" height="30" as="geometry" />
        </mxCell>
        <mxCell id="HUTJ6MK-_L2Ph2AdIFey-2" value="" style="edgeStyle=none;curved=1;rounded=0;orthogonalLoop=1;jettySize=auto;html=1;fontSize=12;startSize=8;endSize=8;" parent="ulN3Z-XiBUH94B2KhhdO-1" source="HUTJ6MK-_L2Ph2AdIFey-0" target="HUTJ6MK-_L2Ph2AdIFey-1" edge="1">
          <mxGeometry relative="1" as="geometry" />
        </mxCell>
        <mxCell id="HUTJ6MK-_L2Ph2AdIFey-0" value="RemoveFirst - if emptyList return" style="text;strokeColor=none;align=center;fillColor=none;html=1;verticalAlign=middle;whiteSpace=wrap;rounded=0;fontSize=16;" parent="ulN3Z-XiBUH94B2KhhdO-1" vertex="1">
          <mxGeometry x="-503" y="-151" width="262" height="30" as="geometry" />
        </mxCell>
        <mxCell id="HUTJ6MK-_L2Ph2AdIFey-1" value="Null" style="text;strokeColor=none;align=center;fillColor=none;html=1;verticalAlign=middle;whiteSpace=wrap;rounded=0;fontSize=28;" parent="ulN3Z-XiBUH94B2KhhdO-1" vertex="1">
          <mxGeometry x="-206" y="-151" width="60" height="30" as="geometry" />
        </mxCell>
        <mxCell id="HUTJ6MK-_L2Ph2AdIFey-3" value="" style="group;labelBackgroundColor=none;" parent="ulN3Z-XiBUH94B2KhhdO-1" vertex="1" connectable="0">
          <mxGeometry x="-23" y="163" width="120" height="60" as="geometry" />
        </mxCell>
        <mxCell id="HUTJ6MK-_L2Ph2AdIFey-4" value="" style="rounded=0;whiteSpace=wrap;html=1;fillColor=#a0522d;fontColor=#ffffff;strokeColor=#6D1F00;" parent="HUTJ6MK-_L2Ph2AdIFey-3" vertex="1">
          <mxGeometry width="120" height="60" as="geometry" />
        </mxCell>
        <mxCell id="HUTJ6MK-_L2Ph2AdIFey-5" value="5" style="text;align=center;html=1;verticalAlign=middle;whiteSpace=wrap;rounded=0;fontSize=16;" parent="HUTJ6MK-_L2Ph2AdIFey-3" vertex="1">
          <mxGeometry x="30" y="15" width="60" height="30" as="geometry" />
        </mxCell>
        <mxCell id="HUTJ6MK-_L2Ph2AdIFey-6" value="" style="group;" parent="ulN3Z-XiBUH94B2KhhdO-1" vertex="1" connectable="0">
          <mxGeometry x="141" y="163" width="120" height="60" as="geometry" />
        </mxCell>
        <mxCell id="HUTJ6MK-_L2Ph2AdIFey-7" value="" style="rounded=0;whiteSpace=wrap;html=1;fillColor=#a0522d;fontColor=#ffffff;strokeColor=#6D1F00;" parent="HUTJ6MK-_L2Ph2AdIFey-6" vertex="1">
          <mxGeometry width="120" height="60" as="geometry" />
        </mxCell>
        <mxCell id="HUTJ6MK-_L2Ph2AdIFey-8" value="6" style="text;strokeColor=none;align=center;fillColor=none;html=1;verticalAlign=middle;whiteSpace=wrap;rounded=0;fontSize=16;" parent="HUTJ6MK-_L2Ph2AdIFey-6" vertex="1">
          <mxGeometry x="30" y="15" width="60" height="30" as="geometry" />
        </mxCell>
        <mxCell id="HUTJ6MK-_L2Ph2AdIFey-9" style="edgeStyle=none;curved=1;rounded=0;orthogonalLoop=1;jettySize=auto;html=1;fontSize=12;startSize=8;endSize=8;" parent="ulN3Z-XiBUH94B2KhhdO-1" source="HUTJ6MK-_L2Ph2AdIFey-4" target="HUTJ6MK-_L2Ph2AdIFey-7" edge="1">
          <mxGeometry relative="1" as="geometry" />
        </mxCell>
        <mxCell id="HUTJ6MK-_L2Ph2AdIFey-10" value="" style="group;" parent="ulN3Z-XiBUH94B2KhhdO-1" vertex="1" connectable="0">
          <mxGeometry x="304" y="163" width="120" height="60" as="geometry" />
        </mxCell>
        <mxCell id="HUTJ6MK-_L2Ph2AdIFey-11" value="" style="rounded=0;whiteSpace=wrap;html=1;fillColor=#a0522d;fontColor=#ffffff;strokeColor=#6D1F00;" parent="HUTJ6MK-_L2Ph2AdIFey-10" vertex="1">
          <mxGeometry width="120" height="60" as="geometry" />
        </mxCell>
        <mxCell id="HUTJ6MK-_L2Ph2AdIFey-12" value="7" style="text;strokeColor=none;align=center;fillColor=none;html=1;verticalAlign=middle;whiteSpace=wrap;rounded=0;fontSize=16;" parent="HUTJ6MK-_L2Ph2AdIFey-10" vertex="1">
          <mxGeometry x="30" y="15" width="60" height="30" as="geometry" />
        </mxCell>
        <mxCell id="HUTJ6MK-_L2Ph2AdIFey-13" style="edgeStyle=none;curved=1;rounded=0;orthogonalLoop=1;jettySize=auto;html=1;entryX=0;entryY=0.5;entryDx=0;entryDy=0;fontSize=12;startSize=8;endSize=8;" parent="ulN3Z-XiBUH94B2KhhdO-1" source="HUTJ6MK-_L2Ph2AdIFey-7" target="HUTJ6MK-_L2Ph2AdIFey-11" edge="1">
          <mxGeometry relative="1" as="geometry" />
        </mxCell>
        <mxCell id="HUTJ6MK-_L2Ph2AdIFey-14" value="Null" style="text;strokeColor=none;align=center;fillColor=none;html=1;verticalAlign=middle;whiteSpace=wrap;rounded=0;fontSize=28;" parent="ulN3Z-XiBUH94B2KhhdO-1" vertex="1">
          <mxGeometry x="477" y="178" width="60" height="30" as="geometry" />
        </mxCell>
        <mxCell id="HUTJ6MK-_L2Ph2AdIFey-15" value="" style="edgeStyle=none;curved=1;rounded=0;orthogonalLoop=1;jettySize=auto;html=1;fontSize=12;startSize=8;endSize=8;" parent="ulN3Z-XiBUH94B2KhhdO-1" source="HUTJ6MK-_L2Ph2AdIFey-11" target="HUTJ6MK-_L2Ph2AdIFey-14" edge="1">
          <mxGeometry relative="1" as="geometry" />
        </mxCell>
        <mxCell id="HUTJ6MK-_L2Ph2AdIFey-23" style="edgeStyle=none;curved=1;rounded=0;orthogonalLoop=1;jettySize=auto;html=1;fontSize=12;startSize=8;endSize=8;" parent="ulN3Z-XiBUH94B2KhhdO-1" source="HUTJ6MK-_L2Ph2AdIFey-17" target="HUTJ6MK-_L2Ph2AdIFey-7" edge="1">
          <mxGeometry relative="1" as="geometry" />
        </mxCell>
        <mxCell id="HUTJ6MK-_L2Ph2AdIFey-17" value="Head" style="text;strokeColor=none;align=center;fillColor=none;html=1;verticalAlign=middle;whiteSpace=wrap;rounded=0;fontSize=20;" parent="ulN3Z-XiBUH94B2KhhdO-1" vertex="1">
          <mxGeometry x="169" y="263" width="60" height="30" as="geometry" />
        </mxCell>
        <mxCell id="HUTJ6MK-_L2Ph2AdIFey-18" style="edgeStyle=none;curved=1;rounded=0;orthogonalLoop=1;jettySize=auto;html=1;entryX=0.5;entryY=1;entryDx=0;entryDy=0;fontSize=12;startSize=8;endSize=8;" parent="ulN3Z-XiBUH94B2KhhdO-1" source="HUTJ6MK-_L2Ph2AdIFey-19" target="HUTJ6MK-_L2Ph2AdIFey-11" edge="1">
          <mxGeometry relative="1" as="geometry" />
        </mxCell>
        <mxCell id="HUTJ6MK-_L2Ph2AdIFey-19" value="Tail" style="text;strokeColor=none;align=center;fillColor=none;html=1;verticalAlign=middle;whiteSpace=wrap;rounded=0;fontSize=20;" parent="ulN3Z-XiBUH94B2KhhdO-1" vertex="1">
          <mxGeometry x="334" y="263" width="60" height="30" as="geometry" />
        </mxCell>
        <mxCell id="HUTJ6MK-_L2Ph2AdIFey-25" style="edgeStyle=none;curved=1;rounded=0;orthogonalLoop=1;jettySize=auto;html=1;fontSize=12;startSize=8;endSize=8;" parent="ulN3Z-XiBUH94B2KhhdO-1" source="HUTJ6MK-_L2Ph2AdIFey-24" target="HUTJ6MK-_L2Ph2AdIFey-4" edge="1">
          <mxGeometry relative="1" as="geometry" />
        </mxCell>
        <mxCell id="HUTJ6MK-_L2Ph2AdIFey-24" value="will be detached and garbage collected" style="text;strokeColor=none;align=center;fillColor=none;html=1;verticalAlign=middle;whiteSpace=wrap;rounded=0;fontSize=16;" parent="ulN3Z-XiBUH94B2KhhdO-1" vertex="1">
          <mxGeometry x="-187" y="247" width="60" height="30" as="geometry" />
        </mxCell>
        <mxCell id="HUTJ6MK-_L2Ph2AdIFey-43" value="" style="group;" parent="ulN3Z-XiBUH94B2KhhdO-1" vertex="1" connectable="0">
          <mxGeometry x="-25" y="321" width="120" height="60" as="geometry" />
        </mxCell>
        <mxCell id="HUTJ6MK-_L2Ph2AdIFey-44" value="" style="rounded=0;whiteSpace=wrap;html=1;fillColor=#a0522d;fontColor=#ffffff;strokeColor=#6D1F00;" parent="HUTJ6MK-_L2Ph2AdIFey-43" vertex="1">
          <mxGeometry width="120" height="60" as="geometry" />
        </mxCell>
        <mxCell id="HUTJ6MK-_L2Ph2AdIFey-45" value="6" style="text;strokeColor=none;align=center;fillColor=none;html=1;verticalAlign=middle;whiteSpace=wrap;rounded=0;fontSize=16;" parent="HUTJ6MK-_L2Ph2AdIFey-43" vertex="1">
          <mxGeometry x="30" y="15" width="60" height="30" as="geometry" />
        </mxCell>
        <mxCell id="HUTJ6MK-_L2Ph2AdIFey-47" value="" style="group;" parent="ulN3Z-XiBUH94B2KhhdO-1" vertex="1" connectable="0">
          <mxGeometry x="138" y="321" width="120" height="60" as="geometry" />
        </mxCell>
        <mxCell id="HUTJ6MK-_L2Ph2AdIFey-48" value="" style="rounded=0;whiteSpace=wrap;html=1;fillColor=#a0522d;fontColor=#ffffff;strokeColor=#6D1F00;" parent="HUTJ6MK-_L2Ph2AdIFey-47" vertex="1">
          <mxGeometry width="120" height="60" as="geometry" />
        </mxCell>
        <mxCell id="HUTJ6MK-_L2Ph2AdIFey-49" value="7" style="text;strokeColor=none;align=center;fillColor=none;html=1;verticalAlign=middle;whiteSpace=wrap;rounded=0;fontSize=16;" parent="HUTJ6MK-_L2Ph2AdIFey-47" vertex="1">
          <mxGeometry x="30" y="15" width="60" height="30" as="geometry" />
        </mxCell>
        <mxCell id="HUTJ6MK-_L2Ph2AdIFey-50" style="edgeStyle=none;curved=1;rounded=0;orthogonalLoop=1;jettySize=auto;html=1;entryX=0;entryY=0.5;entryDx=0;entryDy=0;fontSize=12;startSize=8;endSize=8;" parent="ulN3Z-XiBUH94B2KhhdO-1" source="HUTJ6MK-_L2Ph2AdIFey-44" target="HUTJ6MK-_L2Ph2AdIFey-48" edge="1">
          <mxGeometry relative="1" as="geometry" />
        </mxCell>
        <mxCell id="HUTJ6MK-_L2Ph2AdIFey-51" value="Null" style="text;strokeColor=none;align=center;fillColor=none;html=1;verticalAlign=middle;whiteSpace=wrap;rounded=0;fontSize=28;" parent="ulN3Z-XiBUH94B2KhhdO-1" vertex="1">
          <mxGeometry x="311" y="336" width="60" height="30" as="geometry" />
        </mxCell>
        <mxCell id="HUTJ6MK-_L2Ph2AdIFey-52" value="" style="edgeStyle=none;curved=1;rounded=0;orthogonalLoop=1;jettySize=auto;html=1;fontSize=12;startSize=8;endSize=8;" parent="ulN3Z-XiBUH94B2KhhdO-1" source="HUTJ6MK-_L2Ph2AdIFey-48" target="HUTJ6MK-_L2Ph2AdIFey-51" edge="1">
          <mxGeometry relative="1" as="geometry" />
        </mxCell>
        <mxCell id="HUTJ6MK-_L2Ph2AdIFey-53" style="edgeStyle=none;curved=1;rounded=0;orthogonalLoop=1;jettySize=auto;html=1;fontSize=12;startSize=8;endSize=8;" parent="ulN3Z-XiBUH94B2KhhdO-1" source="HUTJ6MK-_L2Ph2AdIFey-54" target="HUTJ6MK-_L2Ph2AdIFey-44" edge="1">
          <mxGeometry relative="1" as="geometry" />
        </mxCell>
        <mxCell id="HUTJ6MK-_L2Ph2AdIFey-54" value="Head" style="text;strokeColor=none;align=center;fillColor=none;html=1;verticalAlign=middle;whiteSpace=wrap;rounded=0;fontSize=20;" parent="ulN3Z-XiBUH94B2KhhdO-1" vertex="1">
          <mxGeometry x="3" y="421" width="60" height="30" as="geometry" />
        </mxCell>
        <mxCell id="HUTJ6MK-_L2Ph2AdIFey-55" style="edgeStyle=none;curved=1;rounded=0;orthogonalLoop=1;jettySize=auto;html=1;entryX=0.5;entryY=1;entryDx=0;entryDy=0;fontSize=12;startSize=8;endSize=8;" parent="ulN3Z-XiBUH94B2KhhdO-1" source="HUTJ6MK-_L2Ph2AdIFey-56" target="HUTJ6MK-_L2Ph2AdIFey-48" edge="1">
          <mxGeometry relative="1" as="geometry" />
        </mxCell>
        <mxCell id="HUTJ6MK-_L2Ph2AdIFey-56" value="Tail" style="text;strokeColor=none;align=center;fillColor=none;html=1;verticalAlign=middle;whiteSpace=wrap;rounded=0;fontSize=20;" parent="ulN3Z-XiBUH94B2KhhdO-1" vertex="1">
          <mxGeometry x="168" y="421" width="60" height="30" as="geometry" />
        </mxCell>
        <mxCell id="HUTJ6MK-_L2Ph2AdIFey-58" style="edgeStyle=none;curved=1;rounded=0;orthogonalLoop=1;jettySize=auto;html=1;fontSize=12;startSize=8;endSize=8;" parent="ulN3Z-XiBUH94B2KhhdO-1" source="HUTJ6MK-_L2Ph2AdIFey-57" target="HUTJ6MK-_L2Ph2AdIFey-4" edge="1">
          <mxGeometry relative="1" as="geometry" />
        </mxCell>
        <mxCell id="HUTJ6MK-_L2Ph2AdIFey-57" value="return" style="text;strokeColor=none;align=center;fillColor=none;html=1;verticalAlign=middle;whiteSpace=wrap;rounded=0;fontSize=16;" parent="ulN3Z-XiBUH94B2KhhdO-1" vertex="1">
          <mxGeometry x="-192" y="401" width="60" height="30" as="geometry" />
        </mxCell>
        <mxCell id="LndcHNYh7VEhTefgn7He-0" value="O(1)" style="text;strokeColor=none;align=center;fillColor=none;html=1;verticalAlign=middle;whiteSpace=wrap;rounded=0;fontSize=16;" parent="ulN3Z-XiBUH94B2KhhdO-1" vertex="1">
          <mxGeometry x="397" y="-173" width="60" height="30" as="geometry" />
        </mxCell>
      </root>
    </mxGraphModel>
  </diagram>
  <diagram name="RemoveLast" id="-6AL-SdwoprUUUvt52GU">
    <mxGraphModel dx="3151" dy="1594" grid="0" gridSize="10" guides="1" tooltips="1" connect="1" arrows="1" fold="1" page="0" pageScale="1" pageWidth="850" pageHeight="1100" math="0" shadow="0">
      <root>
        <mxCell id="oVHMKrh7ILSgzX-4NDNQ-0" />
        <mxCell id="oVHMKrh7ILSgzX-4NDNQ-1" parent="oVHMKrh7ILSgzX-4NDNQ-0" />
        <mxCell id="mvjdIQgUhgbHcyQgK0T7-26" value="" style="rounded=0;whiteSpace=wrap;html=1;" vertex="1" parent="oVHMKrh7ILSgzX-4NDNQ-1">
          <mxGeometry x="-540" y="58" width="386" height="403" as="geometry" />
        </mxCell>
        <mxCell id="oVHMKrh7ILSgzX-4NDNQ-2" value="" style="rounded=0;whiteSpace=wrap;html=1;" parent="oVHMKrh7ILSgzX-4NDNQ-1" vertex="1">
          <mxGeometry x="5" y="-173" width="306" height="45" as="geometry" />
        </mxCell>
        <mxCell id="oVHMKrh7ILSgzX-4NDNQ-3" value="Node" style="text;strokeColor=none;align=center;fillColor=none;html=1;verticalAlign=middle;whiteSpace=wrap;rounded=0;fontSize=20;" parent="oVHMKrh7ILSgzX-4NDNQ-1" vertex="1">
          <mxGeometry x="11" y="-166" width="60" height="30" as="geometry" />
        </mxCell>
        <mxCell id="oVHMKrh7ILSgzX-4NDNQ-4" value="Null" style="text;strokeColor=none;align=center;fillColor=none;html=1;verticalAlign=middle;whiteSpace=wrap;rounded=0;fontSize=28;" parent="oVHMKrh7ILSgzX-4NDNQ-1" vertex="1">
          <mxGeometry x="90" y="-166" width="60" height="30" as="geometry" />
        </mxCell>
        <mxCell id="oVHMKrh7ILSgzX-4NDNQ-5" value="Head" style="text;strokeColor=none;align=center;fillColor=none;html=1;verticalAlign=middle;whiteSpace=wrap;rounded=0;fontSize=20;" parent="oVHMKrh7ILSgzX-4NDNQ-1" vertex="1">
          <mxGeometry x="169" y="-166" width="60" height="30" as="geometry" />
        </mxCell>
        <mxCell id="oVHMKrh7ILSgzX-4NDNQ-6" value="Tail" style="text;strokeColor=none;align=center;fillColor=none;html=1;verticalAlign=middle;whiteSpace=wrap;rounded=0;fontSize=20;" parent="oVHMKrh7ILSgzX-4NDNQ-1" vertex="1">
          <mxGeometry x="248" y="-166" width="60" height="30" as="geometry" />
        </mxCell>
        <mxCell id="oVHMKrh7ILSgzX-4NDNQ-7" value="RemoveLast" style="text;strokeColor=none;align=center;fillColor=none;html=1;verticalAlign=middle;whiteSpace=wrap;rounded=0;fontSize=20;" parent="oVHMKrh7ILSgzX-4NDNQ-1" vertex="1">
          <mxGeometry x="-165" y="-58" width="60" height="30" as="geometry" />
        </mxCell>
        <mxCell id="oVHMKrh7ILSgzX-4NDNQ-8" value="" style="group" parent="oVHMKrh7ILSgzX-4NDNQ-1" vertex="1" connectable="0">
          <mxGeometry x="753" y="-166" width="120" height="60" as="geometry" />
        </mxCell>
        <mxCell id="oVHMKrh7ILSgzX-4NDNQ-9" value="" style="rounded=0;whiteSpace=wrap;html=1;" parent="oVHMKrh7ILSgzX-4NDNQ-8" vertex="1">
          <mxGeometry width="120" height="60" as="geometry" />
        </mxCell>
        <mxCell id="oVHMKrh7ILSgzX-4NDNQ-10" value="Value" style="text;strokeColor=none;align=center;fillColor=none;html=1;verticalAlign=middle;whiteSpace=wrap;rounded=0;fontSize=16;" parent="oVHMKrh7ILSgzX-4NDNQ-8" vertex="1">
          <mxGeometry x="30" y="15" width="60" height="30" as="geometry" />
        </mxCell>
        <mxCell id="oVHMKrh7ILSgzX-4NDNQ-11" value="" style="group;labelBackgroundColor=none;" parent="oVHMKrh7ILSgzX-4NDNQ-1" vertex="1" connectable="0">
          <mxGeometry x="-39" y="76" width="120" height="60" as="geometry" />
        </mxCell>
        <mxCell id="oVHMKrh7ILSgzX-4NDNQ-12" value="" style="rounded=0;whiteSpace=wrap;html=1;fillColor=#a0522d;fontColor=#ffffff;strokeColor=#6D1F00;" parent="oVHMKrh7ILSgzX-4NDNQ-11" vertex="1">
          <mxGeometry width="120" height="60" as="geometry" />
        </mxCell>
        <mxCell id="oVHMKrh7ILSgzX-4NDNQ-13" value="5" style="text;align=center;html=1;verticalAlign=middle;whiteSpace=wrap;rounded=0;fontSize=16;" parent="oVHMKrh7ILSgzX-4NDNQ-11" vertex="1">
          <mxGeometry x="30" y="15" width="60" height="30" as="geometry" />
        </mxCell>
        <mxCell id="oVHMKrh7ILSgzX-4NDNQ-14" value="" style="group;" parent="oVHMKrh7ILSgzX-4NDNQ-1" vertex="1" connectable="0">
          <mxGeometry x="125" y="76" width="120" height="60" as="geometry" />
        </mxCell>
        <mxCell id="oVHMKrh7ILSgzX-4NDNQ-15" value="" style="rounded=0;whiteSpace=wrap;html=1;fillColor=#a0522d;fontColor=#ffffff;strokeColor=#6D1F00;" parent="oVHMKrh7ILSgzX-4NDNQ-14" vertex="1">
          <mxGeometry width="120" height="60" as="geometry" />
        </mxCell>
        <mxCell id="oVHMKrh7ILSgzX-4NDNQ-16" value="6" style="text;strokeColor=none;align=center;fillColor=none;html=1;verticalAlign=middle;whiteSpace=wrap;rounded=0;fontSize=16;" parent="oVHMKrh7ILSgzX-4NDNQ-14" vertex="1">
          <mxGeometry x="30" y="15" width="60" height="30" as="geometry" />
        </mxCell>
        <mxCell id="oVHMKrh7ILSgzX-4NDNQ-17" style="edgeStyle=none;curved=1;rounded=0;orthogonalLoop=1;jettySize=auto;html=1;fontSize=12;startSize=8;endSize=8;" parent="oVHMKrh7ILSgzX-4NDNQ-1" source="oVHMKrh7ILSgzX-4NDNQ-12" target="oVHMKrh7ILSgzX-4NDNQ-15" edge="1">
          <mxGeometry relative="1" as="geometry" />
        </mxCell>
        <mxCell id="oVHMKrh7ILSgzX-4NDNQ-18" value="" style="group;" parent="oVHMKrh7ILSgzX-4NDNQ-1" vertex="1" connectable="0">
          <mxGeometry x="288" y="76" width="120" height="60" as="geometry" />
        </mxCell>
        <mxCell id="oVHMKrh7ILSgzX-4NDNQ-19" value="" style="rounded=0;whiteSpace=wrap;html=1;fillColor=#a0522d;fontColor=#ffffff;strokeColor=#6D1F00;" parent="oVHMKrh7ILSgzX-4NDNQ-18" vertex="1">
          <mxGeometry width="120" height="60" as="geometry" />
        </mxCell>
        <mxCell id="oVHMKrh7ILSgzX-4NDNQ-20" value="7" style="text;strokeColor=none;align=center;fillColor=none;html=1;verticalAlign=middle;whiteSpace=wrap;rounded=0;fontSize=16;" parent="oVHMKrh7ILSgzX-4NDNQ-18" vertex="1">
          <mxGeometry x="30" y="15" width="60" height="30" as="geometry" />
        </mxCell>
        <mxCell id="oVHMKrh7ILSgzX-4NDNQ-21" style="edgeStyle=none;curved=1;rounded=0;orthogonalLoop=1;jettySize=auto;html=1;entryX=0;entryY=0.5;entryDx=0;entryDy=0;fontSize=12;startSize=8;endSize=8;" parent="oVHMKrh7ILSgzX-4NDNQ-1" source="oVHMKrh7ILSgzX-4NDNQ-15" target="oVHMKrh7ILSgzX-4NDNQ-19" edge="1">
          <mxGeometry relative="1" as="geometry" />
        </mxCell>
        <mxCell id="oVHMKrh7ILSgzX-4NDNQ-22" value="Null" style="text;strokeColor=none;align=center;fillColor=none;html=1;verticalAlign=middle;whiteSpace=wrap;rounded=0;fontSize=28;" parent="oVHMKrh7ILSgzX-4NDNQ-1" vertex="1">
          <mxGeometry x="461" y="91" width="60" height="30" as="geometry" />
        </mxCell>
        <mxCell id="oVHMKrh7ILSgzX-4NDNQ-23" value="" style="edgeStyle=none;curved=1;rounded=0;orthogonalLoop=1;jettySize=auto;html=1;fontSize=12;startSize=8;endSize=8;" parent="oVHMKrh7ILSgzX-4NDNQ-1" source="oVHMKrh7ILSgzX-4NDNQ-19" target="oVHMKrh7ILSgzX-4NDNQ-22" edge="1">
          <mxGeometry relative="1" as="geometry" />
        </mxCell>
        <mxCell id="oVHMKrh7ILSgzX-4NDNQ-24" style="edgeStyle=none;curved=1;rounded=0;orthogonalLoop=1;jettySize=auto;html=1;entryX=0.5;entryY=1;entryDx=0;entryDy=0;fontSize=12;startSize=8;endSize=8;" parent="oVHMKrh7ILSgzX-4NDNQ-1" source="oVHMKrh7ILSgzX-4NDNQ-25" target="oVHMKrh7ILSgzX-4NDNQ-12" edge="1">
          <mxGeometry relative="1" as="geometry" />
        </mxCell>
        <mxCell id="oVHMKrh7ILSgzX-4NDNQ-25" value="Head" style="text;strokeColor=none;align=center;fillColor=none;html=1;verticalAlign=middle;whiteSpace=wrap;rounded=0;fontSize=20;" parent="oVHMKrh7ILSgzX-4NDNQ-1" vertex="1">
          <mxGeometry x="-53" y="176" width="60" height="30" as="geometry" />
        </mxCell>
        <mxCell id="oVHMKrh7ILSgzX-4NDNQ-26" style="edgeStyle=none;curved=1;rounded=0;orthogonalLoop=1;jettySize=auto;html=1;entryX=0.5;entryY=1;entryDx=0;entryDy=0;fontSize=12;startSize=8;endSize=8;" parent="oVHMKrh7ILSgzX-4NDNQ-1" source="oVHMKrh7ILSgzX-4NDNQ-27" target="oVHMKrh7ILSgzX-4NDNQ-19" edge="1">
          <mxGeometry relative="1" as="geometry" />
        </mxCell>
        <mxCell id="oVHMKrh7ILSgzX-4NDNQ-27" value="Tail" style="text;strokeColor=none;align=center;fillColor=none;html=1;verticalAlign=middle;whiteSpace=wrap;rounded=0;fontSize=20;" parent="oVHMKrh7ILSgzX-4NDNQ-1" vertex="1">
          <mxGeometry x="318" y="176" width="60" height="30" as="geometry" />
        </mxCell>
        <mxCell id="oVHMKrh7ILSgzX-4NDNQ-28" value="" style="edgeStyle=none;curved=1;rounded=0;orthogonalLoop=1;jettySize=auto;html=1;fontSize=12;startSize=8;endSize=8;" parent="oVHMKrh7ILSgzX-4NDNQ-1" source="oVHMKrh7ILSgzX-4NDNQ-29" target="oVHMKrh7ILSgzX-4NDNQ-30" edge="1">
          <mxGeometry relative="1" as="geometry" />
        </mxCell>
        <mxCell id="oVHMKrh7ILSgzX-4NDNQ-29" value="RemoveLast - if emptyList return" style="text;strokeColor=none;align=center;fillColor=none;html=1;verticalAlign=middle;whiteSpace=wrap;rounded=0;fontSize=16;" parent="oVHMKrh7ILSgzX-4NDNQ-1" vertex="1">
          <mxGeometry x="-503" y="-151" width="262" height="30" as="geometry" />
        </mxCell>
        <mxCell id="oVHMKrh7ILSgzX-4NDNQ-30" value="Null" style="text;strokeColor=none;align=center;fillColor=none;html=1;verticalAlign=middle;whiteSpace=wrap;rounded=0;fontSize=28;" parent="oVHMKrh7ILSgzX-4NDNQ-1" vertex="1">
          <mxGeometry x="-206" y="-151" width="60" height="30" as="geometry" />
        </mxCell>
        <mxCell id="N5BzqS_0cdLT0qKKifWv-0" value="O(n)" style="text;strokeColor=none;align=center;fillColor=none;html=1;verticalAlign=middle;whiteSpace=wrap;rounded=0;fontSize=16;" parent="oVHMKrh7ILSgzX-4NDNQ-1" vertex="1">
          <mxGeometry x="397" y="-173" width="60" height="30" as="geometry" />
        </mxCell>
        <mxCell id="mvjdIQgUhgbHcyQgK0T7-1" value="" style="group" vertex="1" connectable="0" parent="oVHMKrh7ILSgzX-4NDNQ-1">
          <mxGeometry x="-441" y="130" width="120" height="60" as="geometry" />
        </mxCell>
        <mxCell id="mvjdIQgUhgbHcyQgK0T7-2" value="" style="rounded=0;whiteSpace=wrap;html=1;" vertex="1" parent="mvjdIQgUhgbHcyQgK0T7-1">
          <mxGeometry width="120" height="60" as="geometry" />
        </mxCell>
        <mxCell id="mvjdIQgUhgbHcyQgK0T7-3" value="Value" style="text;strokeColor=none;align=center;fillColor=none;html=1;verticalAlign=middle;whiteSpace=wrap;rounded=0;fontSize=16;" vertex="1" parent="mvjdIQgUhgbHcyQgK0T7-1">
          <mxGeometry x="30" y="15" width="60" height="30" as="geometry" />
        </mxCell>
        <mxCell id="mvjdIQgUhgbHcyQgK0T7-4" value="Size === 1" style="text;strokeColor=none;align=center;fillColor=none;html=1;verticalAlign=middle;whiteSpace=wrap;rounded=0;fontSize=16;" vertex="1" parent="oVHMKrh7ILSgzX-4NDNQ-1">
          <mxGeometry x="-491" y="84" width="107" height="30" as="geometry" />
        </mxCell>
        <mxCell id="mvjdIQgUhgbHcyQgK0T7-6" value="Null" style="text;strokeColor=none;align=center;fillColor=none;html=1;verticalAlign=middle;whiteSpace=wrap;rounded=0;fontSize=28;" vertex="1" parent="oVHMKrh7ILSgzX-4NDNQ-1">
          <mxGeometry x="-274" y="145" width="60" height="30" as="geometry" />
        </mxCell>
        <mxCell id="mvjdIQgUhgbHcyQgK0T7-7" value="" style="edgeStyle=none;curved=1;rounded=0;orthogonalLoop=1;jettySize=auto;html=1;fontSize=12;startSize=8;endSize=8;" edge="1" parent="oVHMKrh7ILSgzX-4NDNQ-1" source="mvjdIQgUhgbHcyQgK0T7-2" target="mvjdIQgUhgbHcyQgK0T7-6">
          <mxGeometry relative="1" as="geometry" />
        </mxCell>
        <mxCell id="mvjdIQgUhgbHcyQgK0T7-10" style="edgeStyle=none;curved=1;rounded=0;orthogonalLoop=1;jettySize=auto;html=1;fontSize=12;startSize=8;endSize=8;" edge="1" parent="oVHMKrh7ILSgzX-4NDNQ-1" source="mvjdIQgUhgbHcyQgK0T7-8" target="mvjdIQgUhgbHcyQgK0T7-2">
          <mxGeometry relative="1" as="geometry" />
        </mxCell>
        <mxCell id="mvjdIQgUhgbHcyQgK0T7-8" value="Head" style="text;strokeColor=none;align=center;fillColor=none;html=1;verticalAlign=middle;whiteSpace=wrap;rounded=0;fontSize=20;" vertex="1" parent="oVHMKrh7ILSgzX-4NDNQ-1">
          <mxGeometry x="-453" y="214" width="60" height="30" as="geometry" />
        </mxCell>
        <mxCell id="mvjdIQgUhgbHcyQgK0T7-11" style="edgeStyle=none;curved=1;rounded=0;orthogonalLoop=1;jettySize=auto;html=1;fontSize=12;startSize=8;endSize=8;" edge="1" parent="oVHMKrh7ILSgzX-4NDNQ-1" source="mvjdIQgUhgbHcyQgK0T7-9" target="mvjdIQgUhgbHcyQgK0T7-2">
          <mxGeometry relative="1" as="geometry" />
        </mxCell>
        <mxCell id="mvjdIQgUhgbHcyQgK0T7-9" value="Tail" style="text;strokeColor=none;align=center;fillColor=none;html=1;verticalAlign=middle;whiteSpace=wrap;rounded=0;fontSize=20;" vertex="1" parent="oVHMKrh7ILSgzX-4NDNQ-1">
          <mxGeometry x="-375" y="210" width="60" height="30" as="geometry" />
        </mxCell>
        <mxCell id="mvjdIQgUhgbHcyQgK0T7-12" value="" style="group" vertex="1" connectable="0" parent="oVHMKrh7ILSgzX-4NDNQ-1">
          <mxGeometry x="-450" y="259" width="120" height="60" as="geometry" />
        </mxCell>
        <mxCell id="mvjdIQgUhgbHcyQgK0T7-13" value="" style="rounded=0;whiteSpace=wrap;html=1;" vertex="1" parent="mvjdIQgUhgbHcyQgK0T7-12">
          <mxGeometry width="120" height="60" as="geometry" />
        </mxCell>
        <mxCell id="mvjdIQgUhgbHcyQgK0T7-14" value="Value" style="text;strokeColor=none;align=center;fillColor=none;html=1;verticalAlign=middle;whiteSpace=wrap;rounded=0;fontSize=16;" vertex="1" parent="mvjdIQgUhgbHcyQgK0T7-12">
          <mxGeometry x="30" y="15" width="60" height="30" as="geometry" />
        </mxCell>
        <mxCell id="mvjdIQgUhgbHcyQgK0T7-15" value="Null" style="text;strokeColor=none;align=center;fillColor=none;html=1;verticalAlign=middle;whiteSpace=wrap;rounded=0;fontSize=28;" vertex="1" parent="oVHMKrh7ILSgzX-4NDNQ-1">
          <mxGeometry x="-283" y="274" width="60" height="30" as="geometry" />
        </mxCell>
        <mxCell id="mvjdIQgUhgbHcyQgK0T7-16" value="" style="edgeStyle=none;curved=1;rounded=0;orthogonalLoop=1;jettySize=auto;html=1;fontSize=12;startSize=8;endSize=8;" edge="1" parent="oVHMKrh7ILSgzX-4NDNQ-1" source="mvjdIQgUhgbHcyQgK0T7-13" target="mvjdIQgUhgbHcyQgK0T7-15">
          <mxGeometry relative="1" as="geometry" />
        </mxCell>
        <mxCell id="mvjdIQgUhgbHcyQgK0T7-23" style="edgeStyle=none;curved=1;rounded=0;orthogonalLoop=1;jettySize=auto;html=1;entryX=0.25;entryY=1;entryDx=0;entryDy=0;fontSize=12;startSize=8;endSize=8;" edge="1" parent="oVHMKrh7ILSgzX-4NDNQ-1" source="mvjdIQgUhgbHcyQgK0T7-18" target="mvjdIQgUhgbHcyQgK0T7-15">
          <mxGeometry relative="1" as="geometry" />
        </mxCell>
        <mxCell id="mvjdIQgUhgbHcyQgK0T7-18" value="Head" style="text;strokeColor=none;align=center;fillColor=none;html=1;verticalAlign=middle;whiteSpace=wrap;rounded=0;fontSize=20;" vertex="1" parent="oVHMKrh7ILSgzX-4NDNQ-1">
          <mxGeometry x="-307" y="344" width="60" height="30" as="geometry" />
        </mxCell>
        <mxCell id="mvjdIQgUhgbHcyQgK0T7-21" style="edgeStyle=none;curved=1;rounded=0;orthogonalLoop=1;jettySize=auto;html=1;fontSize=12;startSize=8;endSize=8;" edge="1" parent="oVHMKrh7ILSgzX-4NDNQ-1" source="mvjdIQgUhgbHcyQgK0T7-20" target="mvjdIQgUhgbHcyQgK0T7-15">
          <mxGeometry relative="1" as="geometry" />
        </mxCell>
        <mxCell id="mvjdIQgUhgbHcyQgK0T7-20" value="Tail" style="text;strokeColor=none;align=center;fillColor=none;html=1;verticalAlign=middle;whiteSpace=wrap;rounded=0;fontSize=20;" vertex="1" parent="oVHMKrh7ILSgzX-4NDNQ-1">
          <mxGeometry x="-235" y="341" width="60" height="30" as="geometry" />
        </mxCell>
        <mxCell id="mvjdIQgUhgbHcyQgK0T7-25" style="edgeStyle=none;curved=1;rounded=0;orthogonalLoop=1;jettySize=auto;html=1;fontSize=12;startSize=8;endSize=8;" edge="1" parent="oVHMKrh7ILSgzX-4NDNQ-1" source="mvjdIQgUhgbHcyQgK0T7-24" target="mvjdIQgUhgbHcyQgK0T7-13">
          <mxGeometry relative="1" as="geometry" />
        </mxCell>
        <mxCell id="mvjdIQgUhgbHcyQgK0T7-24" value="will be detached and garbage collected" style="text;strokeColor=none;align=center;fillColor=none;html=1;verticalAlign=middle;whiteSpace=wrap;rounded=0;fontSize=16;" vertex="1" parent="oVHMKrh7ILSgzX-4NDNQ-1">
          <mxGeometry x="-530" y="369" width="60" height="30" as="geometry" />
        </mxCell>
        <mxCell id="mvjdIQgUhgbHcyQgK0T7-35" style="edgeStyle=none;curved=1;rounded=0;orthogonalLoop=1;jettySize=auto;html=1;entryX=0.5;entryY=1;entryDx=0;entryDy=0;fontSize=12;startSize=8;endSize=8;" edge="1" parent="oVHMKrh7ILSgzX-4NDNQ-1" source="mvjdIQgUhgbHcyQgK0T7-27" target="oVHMKrh7ILSgzX-4NDNQ-25">
          <mxGeometry relative="1" as="geometry" />
        </mxCell>
        <mxCell id="mvjdIQgUhgbHcyQgK0T7-27" value="Current" style="text;strokeColor=none;align=center;fillColor=none;html=1;verticalAlign=middle;whiteSpace=wrap;rounded=0;fontSize=16;" vertex="1" parent="oVHMKrh7ILSgzX-4NDNQ-1">
          <mxGeometry x="-53" y="259" width="60" height="30" as="geometry" />
        </mxCell>
        <mxCell id="mvjdIQgUhgbHcyQgK0T7-38" value="" style="edgeStyle=none;curved=1;rounded=0;orthogonalLoop=1;jettySize=auto;html=1;fontSize=12;startSize=8;endSize=8;" edge="1" parent="oVHMKrh7ILSgzX-4NDNQ-1" source="mvjdIQgUhgbHcyQgK0T7-36" target="mvjdIQgUhgbHcyQgK0T7-37">
          <mxGeometry relative="1" as="geometry" />
        </mxCell>
        <mxCell id="mvjdIQgUhgbHcyQgK0T7-36" value="Previous" style="text;strokeColor=none;align=center;fillColor=none;html=1;verticalAlign=middle;whiteSpace=wrap;rounded=0;fontSize=16;" vertex="1" parent="oVHMKrh7ILSgzX-4NDNQ-1">
          <mxGeometry x="13" y="214" width="60" height="30" as="geometry" />
        </mxCell>
        <mxCell id="mvjdIQgUhgbHcyQgK0T7-37" value="Null" style="text;strokeColor=none;align=center;fillColor=none;html=1;verticalAlign=middle;whiteSpace=wrap;rounded=0;fontSize=28;" vertex="1" parent="oVHMKrh7ILSgzX-4NDNQ-1">
          <mxGeometry x="105" y="214" width="60" height="30" as="geometry" />
        </mxCell>
        <mxCell id="mvjdIQgUhgbHcyQgK0T7-39" value="" style="group;labelBackgroundColor=none;" vertex="1" connectable="0" parent="oVHMKrh7ILSgzX-4NDNQ-1">
          <mxGeometry x="-25" y="300" width="120" height="60" as="geometry" />
        </mxCell>
        <mxCell id="mvjdIQgUhgbHcyQgK0T7-40" value="" style="rounded=0;whiteSpace=wrap;html=1;fillColor=#a0522d;fontColor=#ffffff;strokeColor=#6D1F00;" vertex="1" parent="mvjdIQgUhgbHcyQgK0T7-39">
          <mxGeometry width="120" height="60" as="geometry" />
        </mxCell>
        <mxCell id="mvjdIQgUhgbHcyQgK0T7-41" value="5" style="text;align=center;html=1;verticalAlign=middle;whiteSpace=wrap;rounded=0;fontSize=16;" vertex="1" parent="mvjdIQgUhgbHcyQgK0T7-39">
          <mxGeometry x="30" y="15" width="60" height="30" as="geometry" />
        </mxCell>
        <mxCell id="mvjdIQgUhgbHcyQgK0T7-42" value="" style="group;" vertex="1" connectable="0" parent="oVHMKrh7ILSgzX-4NDNQ-1">
          <mxGeometry x="139" y="300" width="120" height="60" as="geometry" />
        </mxCell>
        <mxCell id="mvjdIQgUhgbHcyQgK0T7-43" value="" style="rounded=0;whiteSpace=wrap;html=1;fillColor=#a0522d;fontColor=#ffffff;strokeColor=#6D1F00;" vertex="1" parent="mvjdIQgUhgbHcyQgK0T7-42">
          <mxGeometry width="120" height="60" as="geometry" />
        </mxCell>
        <mxCell id="mvjdIQgUhgbHcyQgK0T7-44" value="6" style="text;strokeColor=none;align=center;fillColor=none;html=1;verticalAlign=middle;whiteSpace=wrap;rounded=0;fontSize=16;" vertex="1" parent="mvjdIQgUhgbHcyQgK0T7-42">
          <mxGeometry x="30" y="15" width="60" height="30" as="geometry" />
        </mxCell>
        <mxCell id="mvjdIQgUhgbHcyQgK0T7-45" style="edgeStyle=none;curved=1;rounded=0;orthogonalLoop=1;jettySize=auto;html=1;fontSize=12;startSize=8;endSize=8;" edge="1" parent="oVHMKrh7ILSgzX-4NDNQ-1" source="mvjdIQgUhgbHcyQgK0T7-40" target="mvjdIQgUhgbHcyQgK0T7-43">
          <mxGeometry relative="1" as="geometry" />
        </mxCell>
        <mxCell id="mvjdIQgUhgbHcyQgK0T7-46" value="" style="group;" vertex="1" connectable="0" parent="oVHMKrh7ILSgzX-4NDNQ-1">
          <mxGeometry x="302" y="300" width="120" height="60" as="geometry" />
        </mxCell>
        <mxCell id="mvjdIQgUhgbHcyQgK0T7-47" value="" style="rounded=0;whiteSpace=wrap;html=1;fillColor=#a0522d;fontColor=#ffffff;strokeColor=#6D1F00;" vertex="1" parent="mvjdIQgUhgbHcyQgK0T7-46">
          <mxGeometry width="120" height="60" as="geometry" />
        </mxCell>
        <mxCell id="mvjdIQgUhgbHcyQgK0T7-48" value="7" style="text;strokeColor=none;align=center;fillColor=none;html=1;verticalAlign=middle;whiteSpace=wrap;rounded=0;fontSize=16;" vertex="1" parent="mvjdIQgUhgbHcyQgK0T7-46">
          <mxGeometry x="30" y="15" width="60" height="30" as="geometry" />
        </mxCell>
        <mxCell id="mvjdIQgUhgbHcyQgK0T7-49" style="edgeStyle=none;curved=1;rounded=0;orthogonalLoop=1;jettySize=auto;html=1;entryX=0;entryY=0.5;entryDx=0;entryDy=0;fontSize=12;startSize=8;endSize=8;" edge="1" parent="oVHMKrh7ILSgzX-4NDNQ-1" source="mvjdIQgUhgbHcyQgK0T7-43" target="mvjdIQgUhgbHcyQgK0T7-47">
          <mxGeometry relative="1" as="geometry" />
        </mxCell>
        <mxCell id="mvjdIQgUhgbHcyQgK0T7-50" value="Null" style="text;strokeColor=none;align=center;fillColor=none;html=1;verticalAlign=middle;whiteSpace=wrap;rounded=0;fontSize=28;" vertex="1" parent="oVHMKrh7ILSgzX-4NDNQ-1">
          <mxGeometry x="475" y="315" width="60" height="30" as="geometry" />
        </mxCell>
        <mxCell id="mvjdIQgUhgbHcyQgK0T7-51" value="" style="edgeStyle=none;curved=1;rounded=0;orthogonalLoop=1;jettySize=auto;html=1;fontSize=12;startSize=8;endSize=8;" edge="1" parent="oVHMKrh7ILSgzX-4NDNQ-1" source="mvjdIQgUhgbHcyQgK0T7-47" target="mvjdIQgUhgbHcyQgK0T7-50">
          <mxGeometry relative="1" as="geometry" />
        </mxCell>
        <mxCell id="mvjdIQgUhgbHcyQgK0T7-52" style="edgeStyle=none;curved=1;rounded=0;orthogonalLoop=1;jettySize=auto;html=1;entryX=0.5;entryY=1;entryDx=0;entryDy=0;fontSize=12;startSize=8;endSize=8;" edge="1" parent="oVHMKrh7ILSgzX-4NDNQ-1" source="mvjdIQgUhgbHcyQgK0T7-53" target="mvjdIQgUhgbHcyQgK0T7-40">
          <mxGeometry relative="1" as="geometry" />
        </mxCell>
        <mxCell id="mvjdIQgUhgbHcyQgK0T7-53" value="Head" style="text;strokeColor=none;align=center;fillColor=none;html=1;verticalAlign=middle;whiteSpace=wrap;rounded=0;fontSize=20;" vertex="1" parent="oVHMKrh7ILSgzX-4NDNQ-1">
          <mxGeometry x="-39" y="400" width="60" height="30" as="geometry" />
        </mxCell>
        <mxCell id="mvjdIQgUhgbHcyQgK0T7-54" style="edgeStyle=none;curved=1;rounded=0;orthogonalLoop=1;jettySize=auto;html=1;entryX=0.5;entryY=1;entryDx=0;entryDy=0;fontSize=12;startSize=8;endSize=8;" edge="1" parent="oVHMKrh7ILSgzX-4NDNQ-1" source="mvjdIQgUhgbHcyQgK0T7-55" target="mvjdIQgUhgbHcyQgK0T7-47">
          <mxGeometry relative="1" as="geometry" />
        </mxCell>
        <mxCell id="mvjdIQgUhgbHcyQgK0T7-55" value="Tail" style="text;strokeColor=none;align=center;fillColor=none;html=1;verticalAlign=middle;whiteSpace=wrap;rounded=0;fontSize=20;" vertex="1" parent="oVHMKrh7ILSgzX-4NDNQ-1">
          <mxGeometry x="332" y="400" width="60" height="30" as="geometry" />
        </mxCell>
        <mxCell id="mvjdIQgUhgbHcyQgK0T7-62" style="edgeStyle=none;curved=1;rounded=0;orthogonalLoop=1;jettySize=auto;html=1;fontSize=12;startSize=8;endSize=8;" edge="1" parent="oVHMKrh7ILSgzX-4NDNQ-1" source="mvjdIQgUhgbHcyQgK0T7-57" target="mvjdIQgUhgbHcyQgK0T7-43">
          <mxGeometry relative="1" as="geometry" />
        </mxCell>
        <mxCell id="mvjdIQgUhgbHcyQgK0T7-57" value="Current" style="text;strokeColor=none;align=center;fillColor=none;html=1;verticalAlign=middle;whiteSpace=wrap;rounded=0;fontSize=16;" vertex="1" parent="oVHMKrh7ILSgzX-4NDNQ-1">
          <mxGeometry x="70" y="414" width="60" height="30" as="geometry" />
        </mxCell>
        <mxCell id="mvjdIQgUhgbHcyQgK0T7-63" style="edgeStyle=none;curved=1;rounded=0;orthogonalLoop=1;jettySize=auto;html=1;entryX=0.5;entryY=1;entryDx=0;entryDy=0;fontSize=12;startSize=8;endSize=8;" edge="1" parent="oVHMKrh7ILSgzX-4NDNQ-1" source="mvjdIQgUhgbHcyQgK0T7-59" target="mvjdIQgUhgbHcyQgK0T7-53">
          <mxGeometry relative="1" as="geometry" />
        </mxCell>
        <mxCell id="mvjdIQgUhgbHcyQgK0T7-59" value="Previous" style="text;strokeColor=none;align=center;fillColor=none;html=1;verticalAlign=middle;whiteSpace=wrap;rounded=0;fontSize=16;" vertex="1" parent="oVHMKrh7ILSgzX-4NDNQ-1">
          <mxGeometry x="-39" y="462" width="60" height="30" as="geometry" />
        </mxCell>
        <mxCell id="mvjdIQgUhgbHcyQgK0T7-108" value="" style="group;labelBackgroundColor=none;" vertex="1" connectable="0" parent="oVHMKrh7ILSgzX-4NDNQ-1">
          <mxGeometry x="-37" y="523" width="120" height="60" as="geometry" />
        </mxCell>
        <mxCell id="mvjdIQgUhgbHcyQgK0T7-109" value="" style="rounded=0;whiteSpace=wrap;html=1;fillColor=#a0522d;fontColor=#ffffff;strokeColor=#6D1F00;" vertex="1" parent="mvjdIQgUhgbHcyQgK0T7-108">
          <mxGeometry width="120" height="60" as="geometry" />
        </mxCell>
        <mxCell id="mvjdIQgUhgbHcyQgK0T7-110" value="5" style="text;align=center;html=1;verticalAlign=middle;whiteSpace=wrap;rounded=0;fontSize=16;" vertex="1" parent="mvjdIQgUhgbHcyQgK0T7-108">
          <mxGeometry x="30" y="15" width="60" height="30" as="geometry" />
        </mxCell>
        <mxCell id="mvjdIQgUhgbHcyQgK0T7-111" value="" style="group;" vertex="1" connectable="0" parent="oVHMKrh7ILSgzX-4NDNQ-1">
          <mxGeometry x="127" y="523" width="120" height="60" as="geometry" />
        </mxCell>
        <mxCell id="mvjdIQgUhgbHcyQgK0T7-112" value="" style="rounded=0;whiteSpace=wrap;html=1;fillColor=#a0522d;fontColor=#ffffff;strokeColor=#6D1F00;" vertex="1" parent="mvjdIQgUhgbHcyQgK0T7-111">
          <mxGeometry width="120" height="60" as="geometry" />
        </mxCell>
        <mxCell id="mvjdIQgUhgbHcyQgK0T7-113" value="6" style="text;strokeColor=none;align=center;fillColor=none;html=1;verticalAlign=middle;whiteSpace=wrap;rounded=0;fontSize=16;" vertex="1" parent="mvjdIQgUhgbHcyQgK0T7-111">
          <mxGeometry x="30" y="15" width="60" height="30" as="geometry" />
        </mxCell>
        <mxCell id="mvjdIQgUhgbHcyQgK0T7-114" style="edgeStyle=none;curved=1;rounded=0;orthogonalLoop=1;jettySize=auto;html=1;fontSize=12;startSize=8;endSize=8;" edge="1" parent="oVHMKrh7ILSgzX-4NDNQ-1" source="mvjdIQgUhgbHcyQgK0T7-109" target="mvjdIQgUhgbHcyQgK0T7-112">
          <mxGeometry relative="1" as="geometry" />
        </mxCell>
        <mxCell id="mvjdIQgUhgbHcyQgK0T7-115" value="" style="group;" vertex="1" connectable="0" parent="oVHMKrh7ILSgzX-4NDNQ-1">
          <mxGeometry x="290" y="523" width="120" height="60" as="geometry" />
        </mxCell>
        <mxCell id="mvjdIQgUhgbHcyQgK0T7-116" value="" style="rounded=0;whiteSpace=wrap;html=1;fillColor=#a0522d;fontColor=#ffffff;strokeColor=#6D1F00;" vertex="1" parent="mvjdIQgUhgbHcyQgK0T7-115">
          <mxGeometry width="120" height="60" as="geometry" />
        </mxCell>
        <mxCell id="mvjdIQgUhgbHcyQgK0T7-117" value="7" style="text;strokeColor=none;align=center;fillColor=none;html=1;verticalAlign=middle;whiteSpace=wrap;rounded=0;fontSize=16;" vertex="1" parent="mvjdIQgUhgbHcyQgK0T7-115">
          <mxGeometry x="30" y="15" width="60" height="30" as="geometry" />
        </mxCell>
        <mxCell id="mvjdIQgUhgbHcyQgK0T7-118" style="edgeStyle=none;curved=1;rounded=0;orthogonalLoop=1;jettySize=auto;html=1;entryX=0;entryY=0.5;entryDx=0;entryDy=0;fontSize=12;startSize=8;endSize=8;" edge="1" parent="oVHMKrh7ILSgzX-4NDNQ-1" source="mvjdIQgUhgbHcyQgK0T7-112" target="mvjdIQgUhgbHcyQgK0T7-116">
          <mxGeometry relative="1" as="geometry" />
        </mxCell>
        <mxCell id="mvjdIQgUhgbHcyQgK0T7-119" value="Null" style="text;strokeColor=none;align=center;fillColor=none;html=1;verticalAlign=middle;whiteSpace=wrap;rounded=0;fontSize=28;" vertex="1" parent="oVHMKrh7ILSgzX-4NDNQ-1">
          <mxGeometry x="463" y="538" width="60" height="30" as="geometry" />
        </mxCell>
        <mxCell id="mvjdIQgUhgbHcyQgK0T7-120" value="" style="edgeStyle=none;curved=1;rounded=0;orthogonalLoop=1;jettySize=auto;html=1;fontSize=12;startSize=8;endSize=8;" edge="1" parent="oVHMKrh7ILSgzX-4NDNQ-1" source="mvjdIQgUhgbHcyQgK0T7-116" target="mvjdIQgUhgbHcyQgK0T7-119">
          <mxGeometry relative="1" as="geometry" />
        </mxCell>
        <mxCell id="mvjdIQgUhgbHcyQgK0T7-121" style="edgeStyle=none;curved=1;rounded=0;orthogonalLoop=1;jettySize=auto;html=1;entryX=0.5;entryY=1;entryDx=0;entryDy=0;fontSize=12;startSize=8;endSize=8;" edge="1" parent="oVHMKrh7ILSgzX-4NDNQ-1" source="mvjdIQgUhgbHcyQgK0T7-122" target="mvjdIQgUhgbHcyQgK0T7-109">
          <mxGeometry relative="1" as="geometry" />
        </mxCell>
        <mxCell id="mvjdIQgUhgbHcyQgK0T7-122" value="Head" style="text;strokeColor=none;align=center;fillColor=none;html=1;verticalAlign=middle;whiteSpace=wrap;rounded=0;fontSize=20;" vertex="1" parent="oVHMKrh7ILSgzX-4NDNQ-1">
          <mxGeometry x="-51" y="623" width="60" height="30" as="geometry" />
        </mxCell>
        <mxCell id="mvjdIQgUhgbHcyQgK0T7-123" style="edgeStyle=none;curved=1;rounded=0;orthogonalLoop=1;jettySize=auto;html=1;entryX=0.5;entryY=1;entryDx=0;entryDy=0;fontSize=12;startSize=8;endSize=8;" edge="1" parent="oVHMKrh7ILSgzX-4NDNQ-1" source="mvjdIQgUhgbHcyQgK0T7-124" target="mvjdIQgUhgbHcyQgK0T7-116">
          <mxGeometry relative="1" as="geometry" />
        </mxCell>
        <mxCell id="mvjdIQgUhgbHcyQgK0T7-124" value="Tail" style="text;strokeColor=none;align=center;fillColor=none;html=1;verticalAlign=middle;whiteSpace=wrap;rounded=0;fontSize=20;" vertex="1" parent="oVHMKrh7ILSgzX-4NDNQ-1">
          <mxGeometry x="320" y="623" width="60" height="30" as="geometry" />
        </mxCell>
        <mxCell id="mvjdIQgUhgbHcyQgK0T7-126" value="Current" style="text;strokeColor=none;align=center;fillColor=none;html=1;verticalAlign=middle;whiteSpace=wrap;rounded=0;fontSize=16;" vertex="1" parent="oVHMKrh7ILSgzX-4NDNQ-1">
          <mxGeometry x="259" y="620" width="60" height="30" as="geometry" />
        </mxCell>
        <mxCell id="mvjdIQgUhgbHcyQgK0T7-130" style="edgeStyle=none;curved=1;rounded=0;orthogonalLoop=1;jettySize=auto;html=1;fontSize=12;startSize=8;endSize=8;" edge="1" parent="oVHMKrh7ILSgzX-4NDNQ-1" source="mvjdIQgUhgbHcyQgK0T7-128" target="mvjdIQgUhgbHcyQgK0T7-112">
          <mxGeometry relative="1" as="geometry" />
        </mxCell>
        <mxCell id="mvjdIQgUhgbHcyQgK0T7-128" value="Previous" style="text;strokeColor=none;align=center;fillColor=none;html=1;verticalAlign=middle;whiteSpace=wrap;rounded=0;fontSize=16;" vertex="1" parent="oVHMKrh7ILSgzX-4NDNQ-1">
          <mxGeometry x="127" y="620" width="60" height="30" as="geometry" />
        </mxCell>
        <mxCell id="mvjdIQgUhgbHcyQgK0T7-131" style="edgeStyle=none;curved=1;rounded=0;orthogonalLoop=1;jettySize=auto;html=1;entryX=0.375;entryY=0.983;entryDx=0;entryDy=0;entryPerimeter=0;fontSize=12;startSize=8;endSize=8;" edge="1" parent="oVHMKrh7ILSgzX-4NDNQ-1" source="mvjdIQgUhgbHcyQgK0T7-126" target="mvjdIQgUhgbHcyQgK0T7-116">
          <mxGeometry relative="1" as="geometry" />
        </mxCell>
        <mxCell id="mvjdIQgUhgbHcyQgK0T7-156" value="" style="group;labelBackgroundColor=none;" vertex="1" connectable="0" parent="oVHMKrh7ILSgzX-4NDNQ-1">
          <mxGeometry x="-44" y="689" width="120" height="60" as="geometry" />
        </mxCell>
        <mxCell id="mvjdIQgUhgbHcyQgK0T7-157" value="" style="rounded=0;whiteSpace=wrap;html=1;fillColor=#a0522d;fontColor=#ffffff;strokeColor=#6D1F00;" vertex="1" parent="mvjdIQgUhgbHcyQgK0T7-156">
          <mxGeometry width="120" height="60" as="geometry" />
        </mxCell>
        <mxCell id="mvjdIQgUhgbHcyQgK0T7-158" value="5" style="text;align=center;html=1;verticalAlign=middle;whiteSpace=wrap;rounded=0;fontSize=16;" vertex="1" parent="mvjdIQgUhgbHcyQgK0T7-156">
          <mxGeometry x="30" y="15" width="60" height="30" as="geometry" />
        </mxCell>
        <mxCell id="mvjdIQgUhgbHcyQgK0T7-159" value="" style="group;" vertex="1" connectable="0" parent="oVHMKrh7ILSgzX-4NDNQ-1">
          <mxGeometry x="120" y="689" width="120" height="60" as="geometry" />
        </mxCell>
        <mxCell id="mvjdIQgUhgbHcyQgK0T7-160" value="" style="rounded=0;whiteSpace=wrap;html=1;fillColor=#a0522d;fontColor=#ffffff;strokeColor=#6D1F00;" vertex="1" parent="mvjdIQgUhgbHcyQgK0T7-159">
          <mxGeometry width="120" height="60" as="geometry" />
        </mxCell>
        <mxCell id="mvjdIQgUhgbHcyQgK0T7-161" value="6" style="text;strokeColor=none;align=center;fillColor=none;html=1;verticalAlign=middle;whiteSpace=wrap;rounded=0;fontSize=16;" vertex="1" parent="mvjdIQgUhgbHcyQgK0T7-159">
          <mxGeometry x="30" y="15" width="60" height="30" as="geometry" />
        </mxCell>
        <mxCell id="mvjdIQgUhgbHcyQgK0T7-162" style="edgeStyle=none;curved=1;rounded=0;orthogonalLoop=1;jettySize=auto;html=1;fontSize=12;startSize=8;endSize=8;" edge="1" parent="oVHMKrh7ILSgzX-4NDNQ-1" source="mvjdIQgUhgbHcyQgK0T7-157" target="mvjdIQgUhgbHcyQgK0T7-160">
          <mxGeometry relative="1" as="geometry" />
        </mxCell>
        <mxCell id="mvjdIQgUhgbHcyQgK0T7-163" value="" style="group;" vertex="1" connectable="0" parent="oVHMKrh7ILSgzX-4NDNQ-1">
          <mxGeometry x="283" y="689" width="120" height="60" as="geometry" />
        </mxCell>
        <mxCell id="mvjdIQgUhgbHcyQgK0T7-164" value="" style="rounded=0;whiteSpace=wrap;html=1;fillColor=#647687;strokeColor=#314354;fontColor=#ffffff;" vertex="1" parent="mvjdIQgUhgbHcyQgK0T7-163">
          <mxGeometry width="120" height="60" as="geometry" />
        </mxCell>
        <mxCell id="mvjdIQgUhgbHcyQgK0T7-165" value="7" style="text;strokeColor=none;align=center;fillColor=none;html=1;verticalAlign=middle;whiteSpace=wrap;rounded=0;fontSize=16;" vertex="1" parent="mvjdIQgUhgbHcyQgK0T7-163">
          <mxGeometry x="30" y="15" width="60" height="30" as="geometry" />
        </mxCell>
        <mxCell id="mvjdIQgUhgbHcyQgK0T7-166" style="edgeStyle=none;curved=1;rounded=0;orthogonalLoop=1;jettySize=auto;html=1;entryX=0;entryY=0.5;entryDx=0;entryDy=0;fontSize=12;startSize=8;endSize=8;" edge="1" parent="oVHMKrh7ILSgzX-4NDNQ-1" source="mvjdIQgUhgbHcyQgK0T7-160" target="mvjdIQgUhgbHcyQgK0T7-164">
          <mxGeometry relative="1" as="geometry" />
        </mxCell>
        <mxCell id="mvjdIQgUhgbHcyQgK0T7-167" value="Null" style="text;strokeColor=none;align=center;fillColor=none;html=1;verticalAlign=middle;whiteSpace=wrap;rounded=0;fontSize=28;" vertex="1" parent="oVHMKrh7ILSgzX-4NDNQ-1">
          <mxGeometry x="456" y="704" width="60" height="30" as="geometry" />
        </mxCell>
        <mxCell id="mvjdIQgUhgbHcyQgK0T7-168" value="" style="edgeStyle=none;curved=1;rounded=0;orthogonalLoop=1;jettySize=auto;html=1;fontSize=12;startSize=8;endSize=8;" edge="1" parent="oVHMKrh7ILSgzX-4NDNQ-1" source="mvjdIQgUhgbHcyQgK0T7-164" target="mvjdIQgUhgbHcyQgK0T7-167">
          <mxGeometry relative="1" as="geometry" />
        </mxCell>
        <mxCell id="mvjdIQgUhgbHcyQgK0T7-169" style="edgeStyle=none;curved=1;rounded=0;orthogonalLoop=1;jettySize=auto;html=1;entryX=0.5;entryY=1;entryDx=0;entryDy=0;fontSize=12;startSize=8;endSize=8;" edge="1" parent="oVHMKrh7ILSgzX-4NDNQ-1" source="mvjdIQgUhgbHcyQgK0T7-170" target="mvjdIQgUhgbHcyQgK0T7-157">
          <mxGeometry relative="1" as="geometry" />
        </mxCell>
        <mxCell id="mvjdIQgUhgbHcyQgK0T7-170" value="Head" style="text;strokeColor=none;align=center;fillColor=none;html=1;verticalAlign=middle;whiteSpace=wrap;rounded=0;fontSize=20;" vertex="1" parent="oVHMKrh7ILSgzX-4NDNQ-1">
          <mxGeometry x="-58" y="789" width="60" height="30" as="geometry" />
        </mxCell>
        <mxCell id="mvjdIQgUhgbHcyQgK0T7-180" style="edgeStyle=none;curved=1;rounded=0;orthogonalLoop=1;jettySize=auto;html=1;fontSize=12;startSize=8;endSize=8;" edge="1" parent="oVHMKrh7ILSgzX-4NDNQ-1" source="mvjdIQgUhgbHcyQgK0T7-172" target="mvjdIQgUhgbHcyQgK0T7-175">
          <mxGeometry relative="1" as="geometry" />
        </mxCell>
        <mxCell id="mvjdIQgUhgbHcyQgK0T7-172" value="Tail" style="text;strokeColor=none;align=center;fillColor=none;html=1;verticalAlign=middle;whiteSpace=wrap;rounded=0;fontSize=20;" vertex="1" parent="oVHMKrh7ILSgzX-4NDNQ-1">
          <mxGeometry x="313" y="789" width="60" height="30" as="geometry" />
        </mxCell>
        <mxCell id="mvjdIQgUhgbHcyQgK0T7-174" style="edgeStyle=none;curved=1;rounded=0;orthogonalLoop=1;jettySize=auto;html=1;fontSize=12;startSize=8;endSize=8;" edge="1" parent="oVHMKrh7ILSgzX-4NDNQ-1" source="mvjdIQgUhgbHcyQgK0T7-175" target="mvjdIQgUhgbHcyQgK0T7-160">
          <mxGeometry relative="1" as="geometry" />
        </mxCell>
        <mxCell id="mvjdIQgUhgbHcyQgK0T7-175" value="Previous" style="text;strokeColor=none;align=center;fillColor=none;html=1;verticalAlign=middle;whiteSpace=wrap;rounded=0;fontSize=16;" vertex="1" parent="oVHMKrh7ILSgzX-4NDNQ-1">
          <mxGeometry x="120" y="786" width="60" height="30" as="geometry" />
        </mxCell>
        <mxCell id="mvjdIQgUhgbHcyQgK0T7-178" style="edgeStyle=none;curved=1;rounded=0;orthogonalLoop=1;jettySize=auto;html=1;fontSize=12;startSize=8;endSize=8;" edge="1" parent="oVHMKrh7ILSgzX-4NDNQ-1" source="mvjdIQgUhgbHcyQgK0T7-177" target="mvjdIQgUhgbHcyQgK0T7-164">
          <mxGeometry relative="1" as="geometry" />
        </mxCell>
        <mxCell id="mvjdIQgUhgbHcyQgK0T7-177" value="will be detached and garbage collected" style="text;strokeColor=none;align=center;fillColor=none;html=1;verticalAlign=middle;whiteSpace=wrap;rounded=0;fontSize=16;" vertex="1" parent="oVHMKrh7ILSgzX-4NDNQ-1">
          <mxGeometry x="468" y="799" width="60" height="30" as="geometry" />
        </mxCell>
        <mxCell id="mvjdIQgUhgbHcyQgK0T7-179" value="" style="edgeStyle=none;curved=1;rounded=0;orthogonalLoop=1;jettySize=auto;html=1;fontSize=12;startSize=8;endSize=8;" edge="1" parent="oVHMKrh7ILSgzX-4NDNQ-1" source="mvjdIQgUhgbHcyQgK0T7-165" target="mvjdIQgUhgbHcyQgK0T7-167">
          <mxGeometry relative="1" as="geometry" />
        </mxCell>
        <mxCell id="mvjdIQgUhgbHcyQgK0T7-182" style="edgeStyle=none;curved=1;rounded=0;orthogonalLoop=1;jettySize=auto;html=1;fontSize=12;startSize=8;endSize=8;" edge="1" parent="oVHMKrh7ILSgzX-4NDNQ-1" source="mvjdIQgUhgbHcyQgK0T7-181" target="mvjdIQgUhgbHcyQgK0T7-126">
          <mxGeometry relative="1" as="geometry" />
        </mxCell>
        <mxCell id="mvjdIQgUhgbHcyQgK0T7-181" value="Return" style="text;strokeColor=none;align=center;fillColor=none;html=1;verticalAlign=middle;whiteSpace=wrap;rounded=0;fontSize=16;" vertex="1" parent="oVHMKrh7ILSgzX-4NDNQ-1">
          <mxGeometry x="-190" y="677" width="60" height="30" as="geometry" />
        </mxCell>
        <mxCell id="mvjdIQgUhgbHcyQgK0T7-183" value="" style="group;labelBackgroundColor=none;" vertex="1" connectable="0" parent="oVHMKrh7ILSgzX-4NDNQ-1">
          <mxGeometry x="-69" y="868" width="120" height="60" as="geometry" />
        </mxCell>
        <mxCell id="mvjdIQgUhgbHcyQgK0T7-184" value="" style="rounded=0;whiteSpace=wrap;html=1;fillColor=#a0522d;fontColor=#ffffff;strokeColor=#6D1F00;" vertex="1" parent="mvjdIQgUhgbHcyQgK0T7-183">
          <mxGeometry width="120" height="60" as="geometry" />
        </mxCell>
        <mxCell id="mvjdIQgUhgbHcyQgK0T7-185" value="5" style="text;align=center;html=1;verticalAlign=middle;whiteSpace=wrap;rounded=0;fontSize=16;" vertex="1" parent="mvjdIQgUhgbHcyQgK0T7-183">
          <mxGeometry x="30" y="15" width="60" height="30" as="geometry" />
        </mxCell>
        <mxCell id="mvjdIQgUhgbHcyQgK0T7-186" value="" style="group;" vertex="1" connectable="0" parent="oVHMKrh7ILSgzX-4NDNQ-1">
          <mxGeometry x="95" y="868" width="120" height="60" as="geometry" />
        </mxCell>
        <mxCell id="mvjdIQgUhgbHcyQgK0T7-187" value="" style="rounded=0;whiteSpace=wrap;html=1;fillColor=#a0522d;fontColor=#ffffff;strokeColor=#6D1F00;" vertex="1" parent="mvjdIQgUhgbHcyQgK0T7-186">
          <mxGeometry width="120" height="60" as="geometry" />
        </mxCell>
        <mxCell id="mvjdIQgUhgbHcyQgK0T7-188" value="6" style="text;strokeColor=none;align=center;fillColor=none;html=1;verticalAlign=middle;whiteSpace=wrap;rounded=0;fontSize=16;" vertex="1" parent="mvjdIQgUhgbHcyQgK0T7-186">
          <mxGeometry x="30" y="15" width="60" height="30" as="geometry" />
        </mxCell>
        <mxCell id="mvjdIQgUhgbHcyQgK0T7-189" style="edgeStyle=none;curved=1;rounded=0;orthogonalLoop=1;jettySize=auto;html=1;fontSize=12;startSize=8;endSize=8;" edge="1" parent="oVHMKrh7ILSgzX-4NDNQ-1" source="mvjdIQgUhgbHcyQgK0T7-184" target="mvjdIQgUhgbHcyQgK0T7-187">
          <mxGeometry relative="1" as="geometry" />
        </mxCell>
        <mxCell id="mvjdIQgUhgbHcyQgK0T7-194" value="Null" style="text;strokeColor=none;align=center;fillColor=none;html=1;verticalAlign=middle;whiteSpace=wrap;rounded=0;fontSize=28;" vertex="1" parent="oVHMKrh7ILSgzX-4NDNQ-1">
          <mxGeometry x="268" y="883" width="60" height="30" as="geometry" />
        </mxCell>
        <mxCell id="mvjdIQgUhgbHcyQgK0T7-196" style="edgeStyle=none;curved=1;rounded=0;orthogonalLoop=1;jettySize=auto;html=1;entryX=0.5;entryY=1;entryDx=0;entryDy=0;fontSize=12;startSize=8;endSize=8;" edge="1" parent="oVHMKrh7ILSgzX-4NDNQ-1" source="mvjdIQgUhgbHcyQgK0T7-197" target="mvjdIQgUhgbHcyQgK0T7-184">
          <mxGeometry relative="1" as="geometry" />
        </mxCell>
        <mxCell id="mvjdIQgUhgbHcyQgK0T7-197" value="Head" style="text;strokeColor=none;align=center;fillColor=none;html=1;verticalAlign=middle;whiteSpace=wrap;rounded=0;fontSize=20;" vertex="1" parent="oVHMKrh7ILSgzX-4NDNQ-1">
          <mxGeometry x="-41" y="968" width="60" height="30" as="geometry" />
        </mxCell>
        <mxCell id="mvjdIQgUhgbHcyQgK0T7-206" style="edgeStyle=none;curved=1;rounded=0;orthogonalLoop=1;jettySize=auto;html=1;fontSize=12;startSize=8;endSize=8;" edge="1" parent="oVHMKrh7ILSgzX-4NDNQ-1" source="mvjdIQgUhgbHcyQgK0T7-199" target="mvjdIQgUhgbHcyQgK0T7-187">
          <mxGeometry relative="1" as="geometry" />
        </mxCell>
        <mxCell id="mvjdIQgUhgbHcyQgK0T7-199" value="Tail" style="text;strokeColor=none;align=center;fillColor=none;html=1;verticalAlign=middle;whiteSpace=wrap;rounded=0;fontSize=20;" vertex="1" parent="oVHMKrh7ILSgzX-4NDNQ-1">
          <mxGeometry x="120" y="968" width="60" height="30" as="geometry" />
        </mxCell>
        <mxCell id="mvjdIQgUhgbHcyQgK0T7-208" value="" style="edgeStyle=none;curved=1;rounded=0;orthogonalLoop=1;jettySize=auto;html=1;fontSize=12;startSize=8;endSize=8;" edge="1" parent="oVHMKrh7ILSgzX-4NDNQ-1" source="mvjdIQgUhgbHcyQgK0T7-187" target="mvjdIQgUhgbHcyQgK0T7-194">
          <mxGeometry relative="1" as="geometry" />
        </mxCell>
        <mxCell id="mvjdIQgUhgbHcyQgK0T7-209" value="" style="group;labelBackgroundColor=none;" vertex="1" connectable="0" parent="oVHMKrh7ILSgzX-4NDNQ-1">
          <mxGeometry x="-32" y="-89" width="120" height="60" as="geometry" />
        </mxCell>
        <mxCell id="mvjdIQgUhgbHcyQgK0T7-210" value="" style="rounded=0;whiteSpace=wrap;html=1;fillColor=#a0522d;fontColor=#ffffff;strokeColor=#6D1F00;" vertex="1" parent="mvjdIQgUhgbHcyQgK0T7-209">
          <mxGeometry width="120" height="60" as="geometry" />
        </mxCell>
        <mxCell id="mvjdIQgUhgbHcyQgK0T7-211" value="5" style="text;align=center;html=1;verticalAlign=middle;whiteSpace=wrap;rounded=0;fontSize=16;" vertex="1" parent="mvjdIQgUhgbHcyQgK0T7-209">
          <mxGeometry x="30" y="15" width="60" height="30" as="geometry" />
        </mxCell>
        <mxCell id="mvjdIQgUhgbHcyQgK0T7-212" value="" style="group;" vertex="1" connectable="0" parent="oVHMKrh7ILSgzX-4NDNQ-1">
          <mxGeometry x="132" y="-89" width="120" height="60" as="geometry" />
        </mxCell>
        <mxCell id="mvjdIQgUhgbHcyQgK0T7-213" value="" style="rounded=0;whiteSpace=wrap;html=1;fillColor=#a0522d;fontColor=#ffffff;strokeColor=#6D1F00;" vertex="1" parent="mvjdIQgUhgbHcyQgK0T7-212">
          <mxGeometry width="120" height="60" as="geometry" />
        </mxCell>
        <mxCell id="mvjdIQgUhgbHcyQgK0T7-214" value="6" style="text;strokeColor=none;align=center;fillColor=none;html=1;verticalAlign=middle;whiteSpace=wrap;rounded=0;fontSize=16;" vertex="1" parent="mvjdIQgUhgbHcyQgK0T7-212">
          <mxGeometry x="30" y="15" width="60" height="30" as="geometry" />
        </mxCell>
        <mxCell id="mvjdIQgUhgbHcyQgK0T7-215" style="edgeStyle=none;curved=1;rounded=0;orthogonalLoop=1;jettySize=auto;html=1;fontSize=12;startSize=8;endSize=8;" edge="1" parent="oVHMKrh7ILSgzX-4NDNQ-1" source="mvjdIQgUhgbHcyQgK0T7-210" target="mvjdIQgUhgbHcyQgK0T7-213">
          <mxGeometry relative="1" as="geometry" />
        </mxCell>
        <mxCell id="mvjdIQgUhgbHcyQgK0T7-216" value="" style="group;" vertex="1" connectable="0" parent="oVHMKrh7ILSgzX-4NDNQ-1">
          <mxGeometry x="295" y="-89" width="120" height="60" as="geometry" />
        </mxCell>
        <mxCell id="mvjdIQgUhgbHcyQgK0T7-217" value="" style="rounded=0;whiteSpace=wrap;html=1;fillColor=#a0522d;fontColor=#ffffff;strokeColor=#6D1F00;" vertex="1" parent="mvjdIQgUhgbHcyQgK0T7-216">
          <mxGeometry width="120" height="60" as="geometry" />
        </mxCell>
        <mxCell id="mvjdIQgUhgbHcyQgK0T7-218" value="7" style="text;strokeColor=none;align=center;fillColor=none;html=1;verticalAlign=middle;whiteSpace=wrap;rounded=0;fontSize=16;" vertex="1" parent="mvjdIQgUhgbHcyQgK0T7-216">
          <mxGeometry x="30" y="15" width="60" height="30" as="geometry" />
        </mxCell>
        <mxCell id="mvjdIQgUhgbHcyQgK0T7-219" style="edgeStyle=none;curved=1;rounded=0;orthogonalLoop=1;jettySize=auto;html=1;entryX=0;entryY=0.5;entryDx=0;entryDy=0;fontSize=12;startSize=8;endSize=8;" edge="1" parent="oVHMKrh7ILSgzX-4NDNQ-1" source="mvjdIQgUhgbHcyQgK0T7-213" target="mvjdIQgUhgbHcyQgK0T7-217">
          <mxGeometry relative="1" as="geometry" />
        </mxCell>
        <mxCell id="mvjdIQgUhgbHcyQgK0T7-220" value="Null" style="text;strokeColor=none;align=center;fillColor=none;html=1;verticalAlign=middle;whiteSpace=wrap;rounded=0;fontSize=28;" vertex="1" parent="oVHMKrh7ILSgzX-4NDNQ-1">
          <mxGeometry x="468" y="-74" width="60" height="30" as="geometry" />
        </mxCell>
        <mxCell id="mvjdIQgUhgbHcyQgK0T7-221" value="" style="edgeStyle=none;curved=1;rounded=0;orthogonalLoop=1;jettySize=auto;html=1;fontSize=12;startSize=8;endSize=8;" edge="1" parent="oVHMKrh7ILSgzX-4NDNQ-1" source="mvjdIQgUhgbHcyQgK0T7-217" target="mvjdIQgUhgbHcyQgK0T7-220">
          <mxGeometry relative="1" as="geometry" />
        </mxCell>
        <mxCell id="mvjdIQgUhgbHcyQgK0T7-222" style="edgeStyle=none;curved=1;rounded=0;orthogonalLoop=1;jettySize=auto;html=1;entryX=0.5;entryY=1;entryDx=0;entryDy=0;fontSize=12;startSize=8;endSize=8;" edge="1" parent="oVHMKrh7ILSgzX-4NDNQ-1" source="mvjdIQgUhgbHcyQgK0T7-223" target="mvjdIQgUhgbHcyQgK0T7-210">
          <mxGeometry relative="1" as="geometry" />
        </mxCell>
        <mxCell id="mvjdIQgUhgbHcyQgK0T7-223" value="Head" style="text;strokeColor=none;align=center;fillColor=none;html=1;verticalAlign=middle;whiteSpace=wrap;rounded=0;fontSize=20;" vertex="1" parent="oVHMKrh7ILSgzX-4NDNQ-1">
          <mxGeometry x="-2" y="8" width="60" height="30" as="geometry" />
        </mxCell>
        <mxCell id="mvjdIQgUhgbHcyQgK0T7-224" style="edgeStyle=none;curved=1;rounded=0;orthogonalLoop=1;jettySize=auto;html=1;entryX=0.5;entryY=1;entryDx=0;entryDy=0;fontSize=12;startSize=8;endSize=8;" edge="1" parent="oVHMKrh7ILSgzX-4NDNQ-1" source="mvjdIQgUhgbHcyQgK0T7-225" target="mvjdIQgUhgbHcyQgK0T7-217">
          <mxGeometry relative="1" as="geometry" />
        </mxCell>
        <mxCell id="mvjdIQgUhgbHcyQgK0T7-225" value="Tail" style="text;strokeColor=none;align=center;fillColor=none;html=1;verticalAlign=middle;whiteSpace=wrap;rounded=0;fontSize=20;" vertex="1" parent="oVHMKrh7ILSgzX-4NDNQ-1">
          <mxGeometry x="325" y="11" width="60" height="30" as="geometry" />
        </mxCell>
        <mxCell id="mvjdIQgUhgbHcyQgK0T7-233" style="edgeStyle=none;curved=1;rounded=0;orthogonalLoop=1;jettySize=auto;html=1;fontSize=12;startSize=8;endSize=8;" edge="1" parent="oVHMKrh7ILSgzX-4NDNQ-1" source="mvjdIQgUhgbHcyQgK0T7-232" target="mvjdIQgUhgbHcyQgK0T7-14">
          <mxGeometry relative="1" as="geometry" />
        </mxCell>
        <mxCell id="mvjdIQgUhgbHcyQgK0T7-232" value="Return" style="text;strokeColor=none;align=center;fillColor=none;html=1;verticalAlign=middle;whiteSpace=wrap;rounded=0;fontSize=16;" vertex="1" parent="oVHMKrh7ILSgzX-4NDNQ-1">
          <mxGeometry x="-420" y="400" width="60" height="30" as="geometry" />
        </mxCell>
      </root>
    </mxGraphModel>
  </diagram>
</mxfile>
